%TF.GenerationSoftware,KiCad,Pcbnew,4.0.7-e2-6376~61~ubuntu18.04.1*%
%TF.CreationDate,2020-07-27T22:32:39+02:00*%
%TF.ProjectId,panel_02,70616E656C5F30322E6B696361645F70,rev?*%
%TF.FileFunction,Legend,Bot*%
%FSLAX46Y46*%
G04 Gerber Fmt 4.6, Leading zero omitted, Abs format (unit mm)*
G04 Created by KiCad (PCBNEW 4.0.7-e2-6376~61~ubuntu18.04.1) date Mon Jul 27 22:32:39 2020*
%MOMM*%
%LPD*%
G01*
G04 APERTURE LIST*
%ADD10C,0.150000*%
%ADD11C,0.120000*%
G04 APERTURE END LIST*
D10*
D11*
X90821000Y-46859000D02*
X92821000Y-46859000D01*
X92821000Y-48899000D02*
X90821000Y-48899000D01*
X136128000Y-93222000D02*
X134128000Y-93222000D01*
X134128000Y-91182000D02*
X136128000Y-91182000D01*
X134096000Y-86872000D02*
X132096000Y-86872000D01*
X132096000Y-84832000D02*
X134096000Y-84832000D01*
X130306000Y-89678000D02*
X130306000Y-91678000D01*
X128266000Y-91678000D02*
X128266000Y-89678000D01*
X146308000Y-83836000D02*
X146308000Y-85836000D01*
X144268000Y-85836000D02*
X144268000Y-83836000D01*
X150372000Y-85106000D02*
X150372000Y-87106000D01*
X148332000Y-87106000D02*
X148332000Y-85106000D01*
X102275000Y-61980000D02*
X102395000Y-61840000D01*
X102395000Y-61840000D02*
X102485000Y-61680000D01*
X102485000Y-61680000D02*
X102535000Y-61430000D01*
X102535000Y-61430000D02*
X102505000Y-61170000D01*
X102505000Y-61170000D02*
X102355000Y-60910000D01*
X102355000Y-60910000D02*
X102135000Y-60740000D01*
X102135000Y-60740000D02*
X101845000Y-60660000D01*
X101845000Y-60660000D02*
X101555000Y-60700000D01*
X101555000Y-60700000D02*
X101375000Y-60780000D01*
X101375000Y-60780000D02*
X101245000Y-60930000D01*
X103175000Y-64760000D02*
G75*
G03X103175000Y-64760000I-4750000J0D01*
G01*
X99203000Y-52320000D02*
X101203000Y-52320000D01*
X101203000Y-54360000D02*
X99203000Y-54360000D01*
X78343000Y-53540000D02*
X76343000Y-53540000D01*
X76343000Y-55680000D02*
X78343000Y-55680000D01*
X78470000Y-49222000D02*
X76470000Y-49222000D01*
X76470000Y-51362000D02*
X78470000Y-51362000D01*
X78216000Y-45031000D02*
X76216000Y-45031000D01*
X76216000Y-47171000D02*
X78216000Y-47171000D01*
X162417000Y-112976000D02*
X160417000Y-112976000D01*
X160417000Y-115116000D02*
X162417000Y-115116000D01*
X146828000Y-115116000D02*
X148828000Y-115116000D01*
X148828000Y-112976000D02*
X146828000Y-112976000D01*
X90243000Y-123968000D02*
X90243000Y-125968000D01*
X92383000Y-125968000D02*
X92383000Y-123968000D01*
X95323000Y-123968000D02*
X95323000Y-125968000D01*
X97463000Y-125968000D02*
X97463000Y-123968000D01*
X100403000Y-123968000D02*
X100403000Y-125968000D01*
X102543000Y-125968000D02*
X102543000Y-123968000D01*
X94188000Y-88098000D02*
G75*
G03X94188000Y-88098000I-1050000J0D01*
G01*
X88078000Y-93059000D02*
X98198000Y-93059000D01*
X88078000Y-83138000D02*
X98198000Y-83138000D01*
X88078000Y-93059000D02*
X88078000Y-91963000D01*
X88078000Y-89233000D02*
X88078000Y-86963000D01*
X88078000Y-84233000D02*
X88078000Y-83138000D01*
X98198000Y-93059000D02*
X98198000Y-89463000D01*
X98198000Y-86733000D02*
X98198000Y-83138000D01*
X142107000Y-49356000D02*
G75*
G03X142107000Y-49356000I-1050000J0D01*
G01*
X146018000Y-54416000D02*
X146018000Y-44296000D01*
X136097000Y-54416000D02*
X136097000Y-44296000D01*
X146018000Y-54416000D02*
X144922000Y-54416000D01*
X142192000Y-54416000D02*
X139922000Y-54416000D01*
X137192000Y-54416000D02*
X136097000Y-54416000D01*
X146018000Y-44296000D02*
X142422000Y-44296000D01*
X139692000Y-44296000D02*
X136097000Y-44296000D01*
D10*
X91987666Y-46486143D02*
X92035285Y-46533762D01*
X92178142Y-46581381D01*
X92273380Y-46581381D01*
X92416238Y-46533762D01*
X92511476Y-46438524D01*
X92559095Y-46343286D01*
X92606714Y-46152810D01*
X92606714Y-46009952D01*
X92559095Y-45819476D01*
X92511476Y-45724238D01*
X92416238Y-45629000D01*
X92273380Y-45581381D01*
X92178142Y-45581381D01*
X92035285Y-45629000D01*
X91987666Y-45676619D01*
X91606714Y-45676619D02*
X91559095Y-45629000D01*
X91463857Y-45581381D01*
X91225761Y-45581381D01*
X91130523Y-45629000D01*
X91082904Y-45676619D01*
X91035285Y-45771857D01*
X91035285Y-45867095D01*
X91082904Y-46009952D01*
X91654333Y-46581381D01*
X91035285Y-46581381D01*
X135294666Y-94309143D02*
X135342285Y-94356762D01*
X135485142Y-94404381D01*
X135580380Y-94404381D01*
X135723238Y-94356762D01*
X135818476Y-94261524D01*
X135866095Y-94166286D01*
X135913714Y-93975810D01*
X135913714Y-93832952D01*
X135866095Y-93642476D01*
X135818476Y-93547238D01*
X135723238Y-93452000D01*
X135580380Y-93404381D01*
X135485142Y-93404381D01*
X135342285Y-93452000D01*
X135294666Y-93499619D01*
X134961333Y-93404381D02*
X134342285Y-93404381D01*
X134675619Y-93785333D01*
X134532761Y-93785333D01*
X134437523Y-93832952D01*
X134389904Y-93880571D01*
X134342285Y-93975810D01*
X134342285Y-94213905D01*
X134389904Y-94309143D01*
X134437523Y-94356762D01*
X134532761Y-94404381D01*
X134818476Y-94404381D01*
X134913714Y-94356762D01*
X134961333Y-94309143D01*
X133262666Y-87959143D02*
X133310285Y-88006762D01*
X133453142Y-88054381D01*
X133548380Y-88054381D01*
X133691238Y-88006762D01*
X133786476Y-87911524D01*
X133834095Y-87816286D01*
X133881714Y-87625810D01*
X133881714Y-87482952D01*
X133834095Y-87292476D01*
X133786476Y-87197238D01*
X133691238Y-87102000D01*
X133548380Y-87054381D01*
X133453142Y-87054381D01*
X133310285Y-87102000D01*
X133262666Y-87149619D01*
X132357904Y-87054381D02*
X132834095Y-87054381D01*
X132881714Y-87530571D01*
X132834095Y-87482952D01*
X132738857Y-87435333D01*
X132500761Y-87435333D01*
X132405523Y-87482952D01*
X132357904Y-87530571D01*
X132310285Y-87625810D01*
X132310285Y-87863905D01*
X132357904Y-87959143D01*
X132405523Y-88006762D01*
X132500761Y-88054381D01*
X132738857Y-88054381D01*
X132834095Y-88006762D01*
X132881714Y-87959143D01*
X131393143Y-90511334D02*
X131440762Y-90463715D01*
X131488381Y-90320858D01*
X131488381Y-90225620D01*
X131440762Y-90082762D01*
X131345524Y-89987524D01*
X131250286Y-89939905D01*
X131059810Y-89892286D01*
X130916952Y-89892286D01*
X130726476Y-89939905D01*
X130631238Y-89987524D01*
X130536000Y-90082762D01*
X130488381Y-90225620D01*
X130488381Y-90320858D01*
X130536000Y-90463715D01*
X130583619Y-90511334D01*
X130916952Y-91082762D02*
X130869333Y-90987524D01*
X130821714Y-90939905D01*
X130726476Y-90892286D01*
X130678857Y-90892286D01*
X130583619Y-90939905D01*
X130536000Y-90987524D01*
X130488381Y-91082762D01*
X130488381Y-91273239D01*
X130536000Y-91368477D01*
X130583619Y-91416096D01*
X130678857Y-91463715D01*
X130726476Y-91463715D01*
X130821714Y-91416096D01*
X130869333Y-91368477D01*
X130916952Y-91273239D01*
X130916952Y-91082762D01*
X130964571Y-90987524D01*
X131012190Y-90939905D01*
X131107429Y-90892286D01*
X131297905Y-90892286D01*
X131393143Y-90939905D01*
X131440762Y-90987524D01*
X131488381Y-91082762D01*
X131488381Y-91273239D01*
X131440762Y-91368477D01*
X131393143Y-91416096D01*
X131297905Y-91463715D01*
X131107429Y-91463715D01*
X131012190Y-91416096D01*
X130964571Y-91368477D01*
X130916952Y-91273239D01*
X147395143Y-84193143D02*
X147442762Y-84145524D01*
X147490381Y-84002667D01*
X147490381Y-83907429D01*
X147442762Y-83764571D01*
X147347524Y-83669333D01*
X147252286Y-83621714D01*
X147061810Y-83574095D01*
X146918952Y-83574095D01*
X146728476Y-83621714D01*
X146633238Y-83669333D01*
X146538000Y-83764571D01*
X146490381Y-83907429D01*
X146490381Y-84002667D01*
X146538000Y-84145524D01*
X146585619Y-84193143D01*
X147490381Y-85145524D02*
X147490381Y-84574095D01*
X147490381Y-84859809D02*
X146490381Y-84859809D01*
X146633238Y-84764571D01*
X146728476Y-84669333D01*
X146776095Y-84574095D01*
X146490381Y-85764571D02*
X146490381Y-85859810D01*
X146538000Y-85955048D01*
X146585619Y-86002667D01*
X146680857Y-86050286D01*
X146871333Y-86097905D01*
X147109429Y-86097905D01*
X147299905Y-86050286D01*
X147395143Y-86002667D01*
X147442762Y-85955048D01*
X147490381Y-85859810D01*
X147490381Y-85764571D01*
X147442762Y-85669333D01*
X147395143Y-85621714D01*
X147299905Y-85574095D01*
X147109429Y-85526476D01*
X146871333Y-85526476D01*
X146680857Y-85574095D01*
X146585619Y-85621714D01*
X146538000Y-85669333D01*
X146490381Y-85764571D01*
X151459143Y-85463143D02*
X151506762Y-85415524D01*
X151554381Y-85272667D01*
X151554381Y-85177429D01*
X151506762Y-85034571D01*
X151411524Y-84939333D01*
X151316286Y-84891714D01*
X151125810Y-84844095D01*
X150982952Y-84844095D01*
X150792476Y-84891714D01*
X150697238Y-84939333D01*
X150602000Y-85034571D01*
X150554381Y-85177429D01*
X150554381Y-85272667D01*
X150602000Y-85415524D01*
X150649619Y-85463143D01*
X151554381Y-86415524D02*
X151554381Y-85844095D01*
X151554381Y-86129809D02*
X150554381Y-86129809D01*
X150697238Y-86034571D01*
X150792476Y-85939333D01*
X150840095Y-85844095D01*
X150649619Y-86796476D02*
X150602000Y-86844095D01*
X150554381Y-86939333D01*
X150554381Y-87177429D01*
X150602000Y-87272667D01*
X150649619Y-87320286D01*
X150744857Y-87367905D01*
X150840095Y-87367905D01*
X150982952Y-87320286D01*
X151554381Y-86748857D01*
X151554381Y-87367905D01*
X98608333Y-71588571D02*
X98941667Y-71588571D01*
X98941667Y-72112381D02*
X98941667Y-71112381D01*
X98465476Y-71112381D01*
X97560714Y-72112381D02*
X98132143Y-72112381D01*
X97846429Y-72112381D02*
X97846429Y-71112381D01*
X97941667Y-71255238D01*
X98036905Y-71350476D01*
X98132143Y-71398095D01*
X105607763Y-51633381D02*
X105607763Y-50633381D01*
X105036334Y-51633381D01*
X105036334Y-50633381D01*
X104179191Y-51585762D02*
X104274429Y-51633381D01*
X104464906Y-51633381D01*
X104560144Y-51585762D01*
X104607763Y-51490524D01*
X104607763Y-51109571D01*
X104560144Y-51014333D01*
X104464906Y-50966714D01*
X104274429Y-50966714D01*
X104179191Y-51014333D01*
X104131572Y-51109571D01*
X104131572Y-51204810D01*
X104607763Y-51300048D01*
X103274429Y-51585762D02*
X103369667Y-51633381D01*
X103560144Y-51633381D01*
X103655382Y-51585762D01*
X103703001Y-51538143D01*
X103750620Y-51442905D01*
X103750620Y-51157190D01*
X103703001Y-51061952D01*
X103655382Y-51014333D01*
X103560144Y-50966714D01*
X103369667Y-50966714D01*
X103274429Y-51014333D01*
X102464905Y-51585762D02*
X102560143Y-51633381D01*
X102750620Y-51633381D01*
X102845858Y-51585762D01*
X102893477Y-51490524D01*
X102893477Y-51109571D01*
X102845858Y-51014333D01*
X102750620Y-50966714D01*
X102560143Y-50966714D01*
X102464905Y-51014333D01*
X102417286Y-51109571D01*
X102417286Y-51204810D01*
X102893477Y-51300048D01*
X102036334Y-51585762D02*
X101941096Y-51633381D01*
X101750620Y-51633381D01*
X101655381Y-51585762D01*
X101607762Y-51490524D01*
X101607762Y-51442905D01*
X101655381Y-51347667D01*
X101750620Y-51300048D01*
X101893477Y-51300048D01*
X101988715Y-51252429D01*
X102036334Y-51157190D01*
X102036334Y-51109571D01*
X101988715Y-51014333D01*
X101893477Y-50966714D01*
X101750620Y-50966714D01*
X101655381Y-51014333D01*
X101226810Y-51585762D02*
X101131572Y-51633381D01*
X100941096Y-51633381D01*
X100845857Y-51585762D01*
X100798238Y-51490524D01*
X100798238Y-51442905D01*
X100845857Y-51347667D01*
X100941096Y-51300048D01*
X101083953Y-51300048D01*
X101179191Y-51252429D01*
X101226810Y-51157190D01*
X101226810Y-51109571D01*
X101179191Y-51014333D01*
X101083953Y-50966714D01*
X100941096Y-50966714D01*
X100845857Y-51014333D01*
X99941095Y-51633381D02*
X99941095Y-51109571D01*
X99988714Y-51014333D01*
X100083952Y-50966714D01*
X100274429Y-50966714D01*
X100369667Y-51014333D01*
X99941095Y-51585762D02*
X100036333Y-51633381D01*
X100274429Y-51633381D01*
X100369667Y-51585762D01*
X100417286Y-51490524D01*
X100417286Y-51395286D01*
X100369667Y-51300048D01*
X100274429Y-51252429D01*
X100036333Y-51252429D01*
X99941095Y-51204810D01*
X99464905Y-51633381D02*
X99464905Y-50966714D01*
X99464905Y-51157190D02*
X99417286Y-51061952D01*
X99369667Y-51014333D01*
X99274429Y-50966714D01*
X99179190Y-50966714D01*
X98941095Y-50966714D02*
X98703000Y-51633381D01*
X98464904Y-50966714D02*
X98703000Y-51633381D01*
X98798238Y-51871476D01*
X98845857Y-51919095D01*
X98941095Y-51966714D01*
X97512523Y-51538143D02*
X97560142Y-51585762D01*
X97702999Y-51633381D01*
X97798237Y-51633381D01*
X97941095Y-51585762D01*
X98036333Y-51490524D01*
X98083952Y-51395286D01*
X98131571Y-51204810D01*
X98131571Y-51061952D01*
X98083952Y-50871476D01*
X98036333Y-50776238D01*
X97941095Y-50681000D01*
X97798237Y-50633381D01*
X97702999Y-50633381D01*
X97560142Y-50681000D01*
X97512523Y-50728619D01*
X96655380Y-51633381D02*
X96655380Y-51109571D01*
X96702999Y-51014333D01*
X96798237Y-50966714D01*
X96988714Y-50966714D01*
X97083952Y-51014333D01*
X96655380Y-51585762D02*
X96750618Y-51633381D01*
X96988714Y-51633381D01*
X97083952Y-51585762D01*
X97131571Y-51490524D01*
X97131571Y-51395286D01*
X97083952Y-51300048D01*
X96988714Y-51252429D01*
X96750618Y-51252429D01*
X96655380Y-51204810D01*
X96179190Y-50966714D02*
X96179190Y-51966714D01*
X96179190Y-51014333D02*
X96083952Y-50966714D01*
X95893475Y-50966714D01*
X95798237Y-51014333D01*
X95750618Y-51061952D01*
X95702999Y-51157190D01*
X95702999Y-51442905D01*
X95750618Y-51538143D01*
X95798237Y-51585762D01*
X95893475Y-51633381D01*
X96083952Y-51633381D01*
X96179190Y-51585762D01*
X94750618Y-51633381D02*
X95322047Y-51633381D01*
X95036333Y-51633381D02*
X95036333Y-50633381D01*
X95131571Y-50776238D01*
X95226809Y-50871476D01*
X95322047Y-50919095D01*
X81827666Y-55062381D02*
X82161000Y-54586190D01*
X82399095Y-55062381D02*
X82399095Y-54062381D01*
X82018142Y-54062381D01*
X81922904Y-54110000D01*
X81875285Y-54157619D01*
X81827666Y-54252857D01*
X81827666Y-54395714D01*
X81875285Y-54490952D01*
X81922904Y-54538571D01*
X82018142Y-54586190D01*
X82399095Y-54586190D01*
X80875285Y-55062381D02*
X81446714Y-55062381D01*
X81161000Y-55062381D02*
X81161000Y-54062381D01*
X81256238Y-54205238D01*
X81351476Y-54300476D01*
X81446714Y-54348095D01*
X82081666Y-50744381D02*
X82415000Y-50268190D01*
X82653095Y-50744381D02*
X82653095Y-49744381D01*
X82272142Y-49744381D01*
X82176904Y-49792000D01*
X82129285Y-49839619D01*
X82081666Y-49934857D01*
X82081666Y-50077714D01*
X82129285Y-50172952D01*
X82176904Y-50220571D01*
X82272142Y-50268190D01*
X82653095Y-50268190D01*
X81700714Y-49839619D02*
X81653095Y-49792000D01*
X81557857Y-49744381D01*
X81319761Y-49744381D01*
X81224523Y-49792000D01*
X81176904Y-49839619D01*
X81129285Y-49934857D01*
X81129285Y-50030095D01*
X81176904Y-50172952D01*
X81748333Y-50744381D01*
X81129285Y-50744381D01*
X81954666Y-46553381D02*
X82288000Y-46077190D01*
X82526095Y-46553381D02*
X82526095Y-45553381D01*
X82145142Y-45553381D01*
X82049904Y-45601000D01*
X82002285Y-45648619D01*
X81954666Y-45743857D01*
X81954666Y-45886714D01*
X82002285Y-45981952D01*
X82049904Y-46029571D01*
X82145142Y-46077190D01*
X82526095Y-46077190D01*
X81621333Y-45553381D02*
X81002285Y-45553381D01*
X81335619Y-45934333D01*
X81192761Y-45934333D01*
X81097523Y-45981952D01*
X81049904Y-46029571D01*
X81002285Y-46124810D01*
X81002285Y-46362905D01*
X81049904Y-46458143D01*
X81097523Y-46505762D01*
X81192761Y-46553381D01*
X81478476Y-46553381D01*
X81573714Y-46505762D01*
X81621333Y-46458143D01*
X162059857Y-116348381D02*
X162393191Y-115872190D01*
X162631286Y-116348381D02*
X162631286Y-115348381D01*
X162250333Y-115348381D01*
X162155095Y-115396000D01*
X162107476Y-115443619D01*
X162059857Y-115538857D01*
X162059857Y-115681714D01*
X162107476Y-115776952D01*
X162155095Y-115824571D01*
X162250333Y-115872190D01*
X162631286Y-115872190D01*
X161678905Y-115443619D02*
X161631286Y-115396000D01*
X161536048Y-115348381D01*
X161297952Y-115348381D01*
X161202714Y-115396000D01*
X161155095Y-115443619D01*
X161107476Y-115538857D01*
X161107476Y-115634095D01*
X161155095Y-115776952D01*
X161726524Y-116348381D01*
X161107476Y-116348381D01*
X160726524Y-115443619D02*
X160678905Y-115396000D01*
X160583667Y-115348381D01*
X160345571Y-115348381D01*
X160250333Y-115396000D01*
X160202714Y-115443619D01*
X160155095Y-115538857D01*
X160155095Y-115634095D01*
X160202714Y-115776952D01*
X160774143Y-116348381D01*
X160155095Y-116348381D01*
X148470857Y-112648381D02*
X148804191Y-112172190D01*
X149042286Y-112648381D02*
X149042286Y-111648381D01*
X148661333Y-111648381D01*
X148566095Y-111696000D01*
X148518476Y-111743619D01*
X148470857Y-111838857D01*
X148470857Y-111981714D01*
X148518476Y-112076952D01*
X148566095Y-112124571D01*
X148661333Y-112172190D01*
X149042286Y-112172190D01*
X148089905Y-111743619D02*
X148042286Y-111696000D01*
X147947048Y-111648381D01*
X147708952Y-111648381D01*
X147613714Y-111696000D01*
X147566095Y-111743619D01*
X147518476Y-111838857D01*
X147518476Y-111934095D01*
X147566095Y-112076952D01*
X148137524Y-112648381D01*
X147518476Y-112648381D01*
X147185143Y-111648381D02*
X146566095Y-111648381D01*
X146899429Y-112029333D01*
X146756571Y-112029333D01*
X146661333Y-112076952D01*
X146613714Y-112124571D01*
X146566095Y-112219810D01*
X146566095Y-112457905D01*
X146613714Y-112553143D01*
X146661333Y-112600762D01*
X146756571Y-112648381D01*
X147042286Y-112648381D01*
X147137524Y-112600762D01*
X147185143Y-112553143D01*
X93615381Y-124325143D02*
X93139190Y-123991809D01*
X93615381Y-123753714D02*
X92615381Y-123753714D01*
X92615381Y-124134667D01*
X92663000Y-124229905D01*
X92710619Y-124277524D01*
X92805857Y-124325143D01*
X92948714Y-124325143D01*
X93043952Y-124277524D01*
X93091571Y-124229905D01*
X93139190Y-124134667D01*
X93139190Y-123753714D01*
X92710619Y-124706095D02*
X92663000Y-124753714D01*
X92615381Y-124848952D01*
X92615381Y-125087048D01*
X92663000Y-125182286D01*
X92710619Y-125229905D01*
X92805857Y-125277524D01*
X92901095Y-125277524D01*
X93043952Y-125229905D01*
X93615381Y-124658476D01*
X93615381Y-125277524D01*
X92948714Y-126134667D02*
X93615381Y-126134667D01*
X92567762Y-125896571D02*
X93282048Y-125658476D01*
X93282048Y-126277524D01*
X98695381Y-124325143D02*
X98219190Y-123991809D01*
X98695381Y-123753714D02*
X97695381Y-123753714D01*
X97695381Y-124134667D01*
X97743000Y-124229905D01*
X97790619Y-124277524D01*
X97885857Y-124325143D01*
X98028714Y-124325143D01*
X98123952Y-124277524D01*
X98171571Y-124229905D01*
X98219190Y-124134667D01*
X98219190Y-123753714D01*
X97790619Y-124706095D02*
X97743000Y-124753714D01*
X97695381Y-124848952D01*
X97695381Y-125087048D01*
X97743000Y-125182286D01*
X97790619Y-125229905D01*
X97885857Y-125277524D01*
X97981095Y-125277524D01*
X98123952Y-125229905D01*
X98695381Y-124658476D01*
X98695381Y-125277524D01*
X97695381Y-126182286D02*
X97695381Y-125706095D01*
X98171571Y-125658476D01*
X98123952Y-125706095D01*
X98076333Y-125801333D01*
X98076333Y-126039429D01*
X98123952Y-126134667D01*
X98171571Y-126182286D01*
X98266810Y-126229905D01*
X98504905Y-126229905D01*
X98600143Y-126182286D01*
X98647762Y-126134667D01*
X98695381Y-126039429D01*
X98695381Y-125801333D01*
X98647762Y-125706095D01*
X98600143Y-125658476D01*
X103775381Y-124325143D02*
X103299190Y-123991809D01*
X103775381Y-123753714D02*
X102775381Y-123753714D01*
X102775381Y-124134667D01*
X102823000Y-124229905D01*
X102870619Y-124277524D01*
X102965857Y-124325143D01*
X103108714Y-124325143D01*
X103203952Y-124277524D01*
X103251571Y-124229905D01*
X103299190Y-124134667D01*
X103299190Y-123753714D01*
X102870619Y-124706095D02*
X102823000Y-124753714D01*
X102775381Y-124848952D01*
X102775381Y-125087048D01*
X102823000Y-125182286D01*
X102870619Y-125229905D01*
X102965857Y-125277524D01*
X103061095Y-125277524D01*
X103203952Y-125229905D01*
X103775381Y-124658476D01*
X103775381Y-125277524D01*
X102775381Y-126134667D02*
X102775381Y-125944190D01*
X102823000Y-125848952D01*
X102870619Y-125801333D01*
X103013476Y-125706095D01*
X103203952Y-125658476D01*
X103584905Y-125658476D01*
X103680143Y-125706095D01*
X103727762Y-125753714D01*
X103775381Y-125848952D01*
X103775381Y-126039429D01*
X103727762Y-126134667D01*
X103680143Y-126182286D01*
X103584905Y-126229905D01*
X103346810Y-126229905D01*
X103251571Y-126182286D01*
X103203952Y-126134667D01*
X103156333Y-126039429D01*
X103156333Y-125848952D01*
X103203952Y-125753714D01*
X103251571Y-125706095D01*
X103346810Y-125658476D01*
X93733238Y-94700381D02*
X94066572Y-94224190D01*
X94304667Y-94700381D02*
X94304667Y-93700381D01*
X93923714Y-93700381D01*
X93828476Y-93748000D01*
X93780857Y-93795619D01*
X93733238Y-93890857D01*
X93733238Y-94033714D01*
X93780857Y-94128952D01*
X93828476Y-94176571D01*
X93923714Y-94224190D01*
X94304667Y-94224190D01*
X93447524Y-93700381D02*
X93114191Y-94700381D01*
X92780857Y-93700381D01*
X91923714Y-94700381D02*
X92495143Y-94700381D01*
X92209429Y-94700381D02*
X92209429Y-93700381D01*
X92304667Y-93843238D01*
X92399905Y-93938476D01*
X92495143Y-93986095D01*
X147659381Y-48760762D02*
X147183190Y-48427428D01*
X147659381Y-48189333D02*
X146659381Y-48189333D01*
X146659381Y-48570286D01*
X146707000Y-48665524D01*
X146754619Y-48713143D01*
X146849857Y-48760762D01*
X146992714Y-48760762D01*
X147087952Y-48713143D01*
X147135571Y-48665524D01*
X147183190Y-48570286D01*
X147183190Y-48189333D01*
X146659381Y-49046476D02*
X147659381Y-49379809D01*
X146659381Y-49713143D01*
X146992714Y-50475048D02*
X147659381Y-50475048D01*
X146611762Y-50236952D02*
X147326048Y-49998857D01*
X147326048Y-50617905D01*
M02*
