G04 #@! TF.FileFunction,Legend,Bot*
%FSLAX46Y46*%
G04 Gerber Fmt 4.6, Leading zero omitted, Abs format (unit mm)*
G04 Created by KiCad (PCBNEW 4.0.7-e2-6376~61~ubuntu18.04.1) date Sat Mar 13 17:21:18 2021*
%MOMM*%
%LPD*%
G01*
G04 APERTURE LIST*
%ADD10C,0.100000*%
%ADD11C,0.120000*%
%ADD12C,0.150000*%
G04 APERTURE END LIST*
D10*
D11*
X95583500Y-117090000D02*
X97583500Y-117090000D01*
X97583500Y-119130000D02*
X95583500Y-119130000D01*
X135441500Y-92376500D02*
X135441500Y-90376500D01*
X137481500Y-90376500D02*
X137481500Y-92376500D01*
X132889500Y-86935500D02*
X130889500Y-86935500D01*
X130889500Y-84895500D02*
X132889500Y-84895500D01*
X130306000Y-89678000D02*
X130306000Y-91678000D01*
X128266000Y-91678000D02*
X128266000Y-89678000D01*
X146308000Y-83836000D02*
X146308000Y-85836000D01*
X144268000Y-85836000D02*
X144268000Y-83836000D01*
X150372000Y-85106000D02*
X150372000Y-87106000D01*
X148332000Y-87106000D02*
X148332000Y-85106000D01*
X101195500Y-111637000D02*
X101315500Y-111497000D01*
X101315500Y-111497000D02*
X101405500Y-111337000D01*
X101405500Y-111337000D02*
X101455500Y-111087000D01*
X101455500Y-111087000D02*
X101425500Y-110827000D01*
X101425500Y-110827000D02*
X101275500Y-110567000D01*
X101275500Y-110567000D02*
X101055500Y-110397000D01*
X101055500Y-110397000D02*
X100765500Y-110317000D01*
X100765500Y-110317000D02*
X100475500Y-110357000D01*
X100475500Y-110357000D02*
X100295500Y-110437000D01*
X100295500Y-110437000D02*
X100165500Y-110587000D01*
X102095500Y-114417000D02*
G75*
G03X102095500Y-114417000I-4750000J0D01*
G01*
X187125000Y-100441000D02*
X187125000Y-98441000D01*
X184985000Y-98441000D02*
X184985000Y-100441000D01*
X194491000Y-100441000D02*
X194491000Y-98441000D01*
X192351000Y-98441000D02*
X192351000Y-100441000D01*
X179759000Y-100441000D02*
X179759000Y-98441000D01*
X177619000Y-98441000D02*
X177619000Y-100441000D01*
X172139000Y-100441000D02*
X172139000Y-98441000D01*
X169999000Y-98441000D02*
X169999000Y-100441000D01*
X186483500Y-126882500D02*
X184483500Y-126882500D01*
X184483500Y-129022500D02*
X186483500Y-129022500D01*
X168576500Y-125739500D02*
X166576500Y-125739500D01*
X166576500Y-127879500D02*
X168576500Y-127879500D01*
X136874600Y-51388000D02*
G75*
G03X136874600Y-51388000I-1050000J0D01*
G01*
X140785600Y-56448000D02*
X140785600Y-46328000D01*
X130864600Y-56448000D02*
X130864600Y-46328000D01*
X140785600Y-56448000D02*
X139689600Y-56448000D01*
X136959600Y-56448000D02*
X134689600Y-56448000D01*
X131959600Y-56448000D02*
X130864600Y-56448000D01*
X140785600Y-46328000D02*
X137189600Y-46328000D01*
X134459600Y-46328000D02*
X130864600Y-46328000D01*
D12*
X96750166Y-116717143D02*
X96797785Y-116764762D01*
X96940642Y-116812381D01*
X97035880Y-116812381D01*
X97178738Y-116764762D01*
X97273976Y-116669524D01*
X97321595Y-116574286D01*
X97369214Y-116383810D01*
X97369214Y-116240952D01*
X97321595Y-116050476D01*
X97273976Y-115955238D01*
X97178738Y-115860000D01*
X97035880Y-115812381D01*
X96940642Y-115812381D01*
X96797785Y-115860000D01*
X96750166Y-115907619D01*
X96369214Y-115907619D02*
X96321595Y-115860000D01*
X96226357Y-115812381D01*
X95988261Y-115812381D01*
X95893023Y-115860000D01*
X95845404Y-115907619D01*
X95797785Y-116002857D01*
X95797785Y-116098095D01*
X95845404Y-116240952D01*
X96416833Y-116812381D01*
X95797785Y-116812381D01*
X135068643Y-91209834D02*
X135116262Y-91162215D01*
X135163881Y-91019358D01*
X135163881Y-90924120D01*
X135116262Y-90781262D01*
X135021024Y-90686024D01*
X134925786Y-90638405D01*
X134735310Y-90590786D01*
X134592452Y-90590786D01*
X134401976Y-90638405D01*
X134306738Y-90686024D01*
X134211500Y-90781262D01*
X134163881Y-90924120D01*
X134163881Y-91019358D01*
X134211500Y-91162215D01*
X134259119Y-91209834D01*
X134163881Y-91543167D02*
X134163881Y-92162215D01*
X134544833Y-91828881D01*
X134544833Y-91971739D01*
X134592452Y-92066977D01*
X134640071Y-92114596D01*
X134735310Y-92162215D01*
X134973405Y-92162215D01*
X135068643Y-92114596D01*
X135116262Y-92066977D01*
X135163881Y-91971739D01*
X135163881Y-91686024D01*
X135116262Y-91590786D01*
X135068643Y-91543167D01*
X132056166Y-88022643D02*
X132103785Y-88070262D01*
X132246642Y-88117881D01*
X132341880Y-88117881D01*
X132484738Y-88070262D01*
X132579976Y-87975024D01*
X132627595Y-87879786D01*
X132675214Y-87689310D01*
X132675214Y-87546452D01*
X132627595Y-87355976D01*
X132579976Y-87260738D01*
X132484738Y-87165500D01*
X132341880Y-87117881D01*
X132246642Y-87117881D01*
X132103785Y-87165500D01*
X132056166Y-87213119D01*
X131151404Y-87117881D02*
X131627595Y-87117881D01*
X131675214Y-87594071D01*
X131627595Y-87546452D01*
X131532357Y-87498833D01*
X131294261Y-87498833D01*
X131199023Y-87546452D01*
X131151404Y-87594071D01*
X131103785Y-87689310D01*
X131103785Y-87927405D01*
X131151404Y-88022643D01*
X131199023Y-88070262D01*
X131294261Y-88117881D01*
X131532357Y-88117881D01*
X131627595Y-88070262D01*
X131675214Y-88022643D01*
X131393143Y-90511334D02*
X131440762Y-90463715D01*
X131488381Y-90320858D01*
X131488381Y-90225620D01*
X131440762Y-90082762D01*
X131345524Y-89987524D01*
X131250286Y-89939905D01*
X131059810Y-89892286D01*
X130916952Y-89892286D01*
X130726476Y-89939905D01*
X130631238Y-89987524D01*
X130536000Y-90082762D01*
X130488381Y-90225620D01*
X130488381Y-90320858D01*
X130536000Y-90463715D01*
X130583619Y-90511334D01*
X130916952Y-91082762D02*
X130869333Y-90987524D01*
X130821714Y-90939905D01*
X130726476Y-90892286D01*
X130678857Y-90892286D01*
X130583619Y-90939905D01*
X130536000Y-90987524D01*
X130488381Y-91082762D01*
X130488381Y-91273239D01*
X130536000Y-91368477D01*
X130583619Y-91416096D01*
X130678857Y-91463715D01*
X130726476Y-91463715D01*
X130821714Y-91416096D01*
X130869333Y-91368477D01*
X130916952Y-91273239D01*
X130916952Y-91082762D01*
X130964571Y-90987524D01*
X131012190Y-90939905D01*
X131107429Y-90892286D01*
X131297905Y-90892286D01*
X131393143Y-90939905D01*
X131440762Y-90987524D01*
X131488381Y-91082762D01*
X131488381Y-91273239D01*
X131440762Y-91368477D01*
X131393143Y-91416096D01*
X131297905Y-91463715D01*
X131107429Y-91463715D01*
X131012190Y-91416096D01*
X130964571Y-91368477D01*
X130916952Y-91273239D01*
X147395143Y-84193143D02*
X147442762Y-84145524D01*
X147490381Y-84002667D01*
X147490381Y-83907429D01*
X147442762Y-83764571D01*
X147347524Y-83669333D01*
X147252286Y-83621714D01*
X147061810Y-83574095D01*
X146918952Y-83574095D01*
X146728476Y-83621714D01*
X146633238Y-83669333D01*
X146538000Y-83764571D01*
X146490381Y-83907429D01*
X146490381Y-84002667D01*
X146538000Y-84145524D01*
X146585619Y-84193143D01*
X147490381Y-85145524D02*
X147490381Y-84574095D01*
X147490381Y-84859809D02*
X146490381Y-84859809D01*
X146633238Y-84764571D01*
X146728476Y-84669333D01*
X146776095Y-84574095D01*
X146490381Y-85764571D02*
X146490381Y-85859810D01*
X146538000Y-85955048D01*
X146585619Y-86002667D01*
X146680857Y-86050286D01*
X146871333Y-86097905D01*
X147109429Y-86097905D01*
X147299905Y-86050286D01*
X147395143Y-86002667D01*
X147442762Y-85955048D01*
X147490381Y-85859810D01*
X147490381Y-85764571D01*
X147442762Y-85669333D01*
X147395143Y-85621714D01*
X147299905Y-85574095D01*
X147109429Y-85526476D01*
X146871333Y-85526476D01*
X146680857Y-85574095D01*
X146585619Y-85621714D01*
X146538000Y-85669333D01*
X146490381Y-85764571D01*
X151459143Y-85463143D02*
X151506762Y-85415524D01*
X151554381Y-85272667D01*
X151554381Y-85177429D01*
X151506762Y-85034571D01*
X151411524Y-84939333D01*
X151316286Y-84891714D01*
X151125810Y-84844095D01*
X150982952Y-84844095D01*
X150792476Y-84891714D01*
X150697238Y-84939333D01*
X150602000Y-85034571D01*
X150554381Y-85177429D01*
X150554381Y-85272667D01*
X150602000Y-85415524D01*
X150649619Y-85463143D01*
X151554381Y-86415524D02*
X151554381Y-85844095D01*
X151554381Y-86129809D02*
X150554381Y-86129809D01*
X150697238Y-86034571D01*
X150792476Y-85939333D01*
X150840095Y-85844095D01*
X150649619Y-86796476D02*
X150602000Y-86844095D01*
X150554381Y-86939333D01*
X150554381Y-87177429D01*
X150602000Y-87272667D01*
X150649619Y-87320286D01*
X150744857Y-87367905D01*
X150840095Y-87367905D01*
X150982952Y-87320286D01*
X151554381Y-86748857D01*
X151554381Y-87367905D01*
X97528833Y-121245571D02*
X97862167Y-121245571D01*
X97862167Y-121769381D02*
X97862167Y-120769381D01*
X97385976Y-120769381D01*
X96481214Y-121769381D02*
X97052643Y-121769381D01*
X96766929Y-121769381D02*
X96766929Y-120769381D01*
X96862167Y-120912238D01*
X96957405Y-121007476D01*
X97052643Y-121055095D01*
X184657381Y-99274334D02*
X184181190Y-98941000D01*
X184657381Y-98702905D02*
X183657381Y-98702905D01*
X183657381Y-99083858D01*
X183705000Y-99179096D01*
X183752619Y-99226715D01*
X183847857Y-99274334D01*
X183990714Y-99274334D01*
X184085952Y-99226715D01*
X184133571Y-99179096D01*
X184181190Y-99083858D01*
X184181190Y-98702905D01*
X183657381Y-100131477D02*
X183657381Y-99941000D01*
X183705000Y-99845762D01*
X183752619Y-99798143D01*
X183895476Y-99702905D01*
X184085952Y-99655286D01*
X184466905Y-99655286D01*
X184562143Y-99702905D01*
X184609762Y-99750524D01*
X184657381Y-99845762D01*
X184657381Y-100036239D01*
X184609762Y-100131477D01*
X184562143Y-100179096D01*
X184466905Y-100226715D01*
X184228810Y-100226715D01*
X184133571Y-100179096D01*
X184085952Y-100131477D01*
X184038333Y-100036239D01*
X184038333Y-99845762D01*
X184085952Y-99750524D01*
X184133571Y-99702905D01*
X184228810Y-99655286D01*
X192023381Y-99274334D02*
X191547190Y-98941000D01*
X192023381Y-98702905D02*
X191023381Y-98702905D01*
X191023381Y-99083858D01*
X191071000Y-99179096D01*
X191118619Y-99226715D01*
X191213857Y-99274334D01*
X191356714Y-99274334D01*
X191451952Y-99226715D01*
X191499571Y-99179096D01*
X191547190Y-99083858D01*
X191547190Y-98702905D01*
X191023381Y-99607667D02*
X191023381Y-100274334D01*
X192023381Y-99845762D01*
X177291381Y-99274334D02*
X176815190Y-98941000D01*
X177291381Y-98702905D02*
X176291381Y-98702905D01*
X176291381Y-99083858D01*
X176339000Y-99179096D01*
X176386619Y-99226715D01*
X176481857Y-99274334D01*
X176624714Y-99274334D01*
X176719952Y-99226715D01*
X176767571Y-99179096D01*
X176815190Y-99083858D01*
X176815190Y-98702905D01*
X176719952Y-99845762D02*
X176672333Y-99750524D01*
X176624714Y-99702905D01*
X176529476Y-99655286D01*
X176481857Y-99655286D01*
X176386619Y-99702905D01*
X176339000Y-99750524D01*
X176291381Y-99845762D01*
X176291381Y-100036239D01*
X176339000Y-100131477D01*
X176386619Y-100179096D01*
X176481857Y-100226715D01*
X176529476Y-100226715D01*
X176624714Y-100179096D01*
X176672333Y-100131477D01*
X176719952Y-100036239D01*
X176719952Y-99845762D01*
X176767571Y-99750524D01*
X176815190Y-99702905D01*
X176910429Y-99655286D01*
X177100905Y-99655286D01*
X177196143Y-99702905D01*
X177243762Y-99750524D01*
X177291381Y-99845762D01*
X177291381Y-100036239D01*
X177243762Y-100131477D01*
X177196143Y-100179096D01*
X177100905Y-100226715D01*
X176910429Y-100226715D01*
X176815190Y-100179096D01*
X176767571Y-100131477D01*
X176719952Y-100036239D01*
X169671381Y-99274334D02*
X169195190Y-98941000D01*
X169671381Y-98702905D02*
X168671381Y-98702905D01*
X168671381Y-99083858D01*
X168719000Y-99179096D01*
X168766619Y-99226715D01*
X168861857Y-99274334D01*
X169004714Y-99274334D01*
X169099952Y-99226715D01*
X169147571Y-99179096D01*
X169195190Y-99083858D01*
X169195190Y-98702905D01*
X169671381Y-99750524D02*
X169671381Y-99941000D01*
X169623762Y-100036239D01*
X169576143Y-100083858D01*
X169433286Y-100179096D01*
X169242810Y-100226715D01*
X168861857Y-100226715D01*
X168766619Y-100179096D01*
X168719000Y-100131477D01*
X168671381Y-100036239D01*
X168671381Y-99845762D01*
X168719000Y-99750524D01*
X168766619Y-99702905D01*
X168861857Y-99655286D01*
X169099952Y-99655286D01*
X169195190Y-99702905D01*
X169242810Y-99750524D01*
X169290429Y-99845762D01*
X169290429Y-100036239D01*
X169242810Y-100131477D01*
X169195190Y-100179096D01*
X169099952Y-100226715D01*
X186126357Y-130254881D02*
X186459691Y-129778690D01*
X186697786Y-130254881D02*
X186697786Y-129254881D01*
X186316833Y-129254881D01*
X186221595Y-129302500D01*
X186173976Y-129350119D01*
X186126357Y-129445357D01*
X186126357Y-129588214D01*
X186173976Y-129683452D01*
X186221595Y-129731071D01*
X186316833Y-129778690D01*
X186697786Y-129778690D01*
X185745405Y-129350119D02*
X185697786Y-129302500D01*
X185602548Y-129254881D01*
X185364452Y-129254881D01*
X185269214Y-129302500D01*
X185221595Y-129350119D01*
X185173976Y-129445357D01*
X185173976Y-129540595D01*
X185221595Y-129683452D01*
X185793024Y-130254881D01*
X185173976Y-130254881D01*
X184793024Y-129350119D02*
X184745405Y-129302500D01*
X184650167Y-129254881D01*
X184412071Y-129254881D01*
X184316833Y-129302500D01*
X184269214Y-129350119D01*
X184221595Y-129445357D01*
X184221595Y-129540595D01*
X184269214Y-129683452D01*
X184840643Y-130254881D01*
X184221595Y-130254881D01*
X168219357Y-129111881D02*
X168552691Y-128635690D01*
X168790786Y-129111881D02*
X168790786Y-128111881D01*
X168409833Y-128111881D01*
X168314595Y-128159500D01*
X168266976Y-128207119D01*
X168219357Y-128302357D01*
X168219357Y-128445214D01*
X168266976Y-128540452D01*
X168314595Y-128588071D01*
X168409833Y-128635690D01*
X168790786Y-128635690D01*
X167838405Y-128207119D02*
X167790786Y-128159500D01*
X167695548Y-128111881D01*
X167457452Y-128111881D01*
X167362214Y-128159500D01*
X167314595Y-128207119D01*
X167266976Y-128302357D01*
X167266976Y-128397595D01*
X167314595Y-128540452D01*
X167886024Y-129111881D01*
X167266976Y-129111881D01*
X166933643Y-128111881D02*
X166314595Y-128111881D01*
X166647929Y-128492833D01*
X166505071Y-128492833D01*
X166409833Y-128540452D01*
X166362214Y-128588071D01*
X166314595Y-128683310D01*
X166314595Y-128921405D01*
X166362214Y-129016643D01*
X166409833Y-129064262D01*
X166505071Y-129111881D01*
X166790786Y-129111881D01*
X166886024Y-129064262D01*
X166933643Y-129016643D01*
X142426981Y-50792762D02*
X141950790Y-50459428D01*
X142426981Y-50221333D02*
X141426981Y-50221333D01*
X141426981Y-50602286D01*
X141474600Y-50697524D01*
X141522219Y-50745143D01*
X141617457Y-50792762D01*
X141760314Y-50792762D01*
X141855552Y-50745143D01*
X141903171Y-50697524D01*
X141950790Y-50602286D01*
X141950790Y-50221333D01*
X141426981Y-51078476D02*
X142426981Y-51411809D01*
X141426981Y-51745143D01*
X141760314Y-52507048D02*
X142426981Y-52507048D01*
X141379362Y-52268952D02*
X142093648Y-52030857D01*
X142093648Y-52649905D01*
M02*
