M48
;DRILL file {KiCad 4.0.7-e2-6376~61~ubuntu18.04.1} date Mon Jul 27 22:33:41 2020
;FORMAT={-:-/ absolute / metric / decimal}
FMAT,2
METRIC,TZ
T1C0.400
T2C0.700
T3C0.800
T4C0.813
T5C1.000
T6C1.020
T7C1.200
T8C1.300
T9C2.000
T10C2.500
T11C3.500
%
G90
G05
M71
T1
X72.771Y-46.228
X72.898Y-54.737
X73.025Y-50.419
X74.168Y-113.538
X82.931Y-108.204
X121.285Y-92.964
X125.857Y-85.725
X126.746Y-90.424
X127.254Y-94.361
X127.381Y-84.582
X129.159Y-99.314
X129.794Y-83.439
X132.207Y-98.933
X132.969Y-99.695
X133.858Y-99.06
X134.112Y-88.392
X134.62Y-99.822
X135.128Y-94.361
X135.382Y-99.187
X135.509Y-83.693
X136.271Y-99.949
X137.033Y-99.187
X138.176Y-73.406
X140.843Y-73.279
X142.748Y-87.757
X143.129Y-114.046
X147.447Y-81.28
X147.574Y-95.25
X150.114Y-81.026
X152.4Y-82.042
X153.035Y-83.82
X154.813Y-88.519
X165.481Y-114.046
X171.45Y-49.911
X172.847Y-51.943
T2
X92.202Y-90.297
X92.202Y-95.377
T3
X70.231Y-42.672
X70.231Y-57.912
X72.771Y-42.672
X72.771Y-57.912
X75.311Y-42.672
X75.311Y-57.912
X77.851Y-42.672
X77.851Y-57.912
X80.391Y-42.672
X80.391Y-57.912
X82.931Y-42.672
X82.931Y-57.912
X85.471Y-42.672
X85.471Y-57.912
X88.011Y-42.672
X88.011Y-57.912
X90.551Y-42.672
X90.551Y-57.912
X93.091Y-42.672
X93.091Y-57.912
X95.631Y-42.672
X95.631Y-57.912
X98.171Y-42.672
X98.171Y-57.912
X100.711Y-42.672
X100.711Y-57.912
X103.251Y-42.672
X103.251Y-57.912
X105.791Y-42.672
X105.791Y-57.912
X123.952Y-78.232
X126.492Y-78.232
T4
X65.659Y-62.484
X65.659Y-65.024
X69.596Y-62.484
X69.596Y-65.024
X85.344Y-80.899
X87.884Y-80.899
X92.71Y-79.375
X95.25Y-79.375
X95.377Y-74.168
X97.917Y-74.168
X101.473Y-81.026
X104.013Y-81.026
X109.474Y-106.934
X109.474Y-109.474
X113.538Y-41.275
X113.538Y-43.815
X113.538Y-106.934
X113.538Y-109.474
X118.11Y-41.275
X118.11Y-43.815
X122.301Y-41.148
X122.301Y-43.688
X126.492Y-41.021
X126.492Y-43.561
X186.69Y-84.074
X186.69Y-88.9
X186.69Y-93.726
X189.23Y-84.074
X189.23Y-88.9
X189.23Y-93.726
T5
X64.643Y-112.649
X64.643Y-117.149
X66.421Y-75.184
X66.421Y-77.724
X66.421Y-80.264
X66.421Y-82.804
X66.421Y-85.344
X66.421Y-87.884
X67.183Y-103.378
X71.143Y-112.649
X71.143Y-117.149
X73.683Y-103.378
X91.313Y-131.191
X93.853Y-131.191
X95.885Y-64.77
X96.393Y-131.191
X98.933Y-131.191
X100.965Y-64.76
X101.473Y-131.191
X104.013Y-131.191
X106.553Y-131.191
X137.287Y-40.862
X139.827Y-40.862
X142.367Y-40.862
X144.907Y-40.862
X147.447Y-40.862
X149.987Y-40.862
X152.527Y-40.862
X155.067Y-40.862
X157.607Y-40.862
X160.147Y-40.862
X162.687Y-40.862
X165.227Y-40.862
X167.767Y-40.862
X170.307Y-40.862
X172.847Y-40.862
X173.355Y-59.045
X175.006Y-116.713
X175.006Y-121.213
X175.387Y-40.862
X178.435Y-59.055
X181.506Y-116.713
X181.506Y-121.213
X191.135Y-116.713
X191.135Y-121.213
X194.183Y-86.614
X194.183Y-89.154
X194.183Y-91.694
X197.635Y-116.713
X197.635Y-121.213
T7
X122.555Y-56.261
X127.635Y-56.261
T8
X88.138Y-85.598
X88.138Y-90.598
X98.138Y-88.098
X112.221Y-58.039
X114.721Y-48.039
X117.221Y-58.039
X138.557Y-54.356
X141.057Y-44.356
X143.557Y-54.356
X184.611Y-59.563
X189.611Y-59.563
T9
X201.803Y-84.074
X201.803Y-94.234
T10
X75.819Y-126.111
X76.2Y-67.183
X121.539Y-67.183
X121.539Y-126.111
X131.699Y-72.358
X206.756Y-72.358
T11
X66.421Y-40.64
X66.421Y-130.556
X206.375Y-40.64
X206.375Y-130.556
T6
X196.85Y-56.386G85X196.85Y-54.866
G05
X201.42Y-50.546G85X199.9Y-50.546
G05
X202.95Y-56.386G85X202.95Y-54.866
G05
T0
M30
