M48
;DRILL file {KiCad 4.0.7-e2-6376~61~ubuntu18.04.1} date Sat Mar 13 18:06:09 2021
;FORMAT={-:-/ absolute / metric / decimal}
FMAT,2
METRIC,TZ
T1C0.400
T2C0.700
T3C0.800
T4C1.000
T5C1.020
T6C1.200
T7C1.300
T8C2.000
%
G90
G05
M71
T1
X88.201Y-84.328
X88.709Y-81.407
X90.018Y-84.074
X90.335Y-81.471
X95.567Y-120.904
X97.066Y-97.409
X98.361Y-120.777
X105.385Y-45.148
X113.259Y-105.664
X117.513Y-105.791
X119.164Y-77.279
X122.149Y-82.74
X122.237Y-88.328
X122.276Y-90.805
X122.466Y-92.964
X122.657Y-116.268
X122.745Y-96.901
X123.292Y-43.688
X126.149Y-43.561
X126.492Y-90.614
X126.682Y-101.028
X127.229Y-79.566
X127.381Y-88.709
X127.825Y-85.788
X129.222Y-95.25
X130.15Y-79.566
X131.636Y-92.329
X133.261Y-74.358
X133.921Y-93.281
X134.468Y-79.692
X135.064Y-110.299
X136.017Y-84.138
X141.478Y-101.028
X142.684Y-96.774
X142.748Y-87.757
X143.04Y-66.294
X144.907Y-103.251
X147.13Y-97.917
X147.891Y-94.932
X149.644Y-93.662
X151.701Y-83.693
X154.813Y-88.519
X156.693Y-88.138
X158.915Y-59.88
X159.169Y-58.737
X159.296Y-57.277
X159.868Y-55.689
X163.043Y-53.784
X163.043Y-55.499
X163.233Y-57.15
X163.36Y-58.356
X169.037Y-94.615
X169.164Y-103.441
X169.736Y-129.476
X176.911Y-94.615
X178.498Y-104.076
X184.023Y-95.123
X186.055Y-104.203
X189.928Y-129.794
X191.135Y-95.123
X193.357Y-104.521
T2
X94.932Y-98.425
X100.012Y-98.425
T3
X122.682Y-78.74
X125.222Y-78.74
T4
X86.208Y-60.325
X86.208Y-62.865
X86.208Y-65.405
X86.208Y-67.945
X86.208Y-70.485
X86.208Y-73.025
X86.208Y-75.565
X86.208Y-78.105
X88.075Y-87.63
X88.075Y-90.17
X88.075Y-92.71
X93.574Y-66.294
X94.805Y-114.427
X95.694Y-105.156
X95.694Y-107.696
X95.694Y-110.236
X96.114Y-66.294
X98.234Y-105.156
X98.234Y-107.696
X98.234Y-110.236
X98.336Y-53.848
X98.654Y-66.294
X99.885Y-114.417
X100.266Y-127.
X100.876Y-53.848
X102.616Y-136.081
X102.616Y-140.581
X106.766Y-127.
X106.997Y-101.6
X106.997Y-104.14
X109.116Y-136.081
X109.116Y-140.581
X110.719Y-53.848
X113.259Y-53.848
X122.287Y-40.862
X124.827Y-40.862
X127.367Y-40.862
X129.774Y-144.008
X129.907Y-40.862
X132.314Y-144.008
X132.447Y-40.862
X134.854Y-144.008
X134.987Y-40.862
X137.394Y-144.008
X137.527Y-40.862
X139.934Y-144.008
X140.067Y-40.862
X142.474Y-144.008
X142.607Y-40.862
X145.014Y-144.008
X145.147Y-40.862
X147.687Y-40.862
X150.227Y-40.862
X152.767Y-40.862
X155.307Y-40.862
X157.847Y-40.862
X160.387Y-40.862
X161.544Y-60.759
X166.624Y-60.77
X169.266Y-115.697
X169.266Y-120.197
X169.672Y-84.01
X169.672Y-86.55
X169.672Y-89.09
X175.766Y-115.697
X175.766Y-120.197
X180.721Y-83.757
X180.721Y-86.296
X180.721Y-88.837
X181.648Y-115.697
X181.648Y-120.197
X188.148Y-115.697
X188.148Y-120.197
T6
X113.957Y-64.135
X119.037Y-64.135
T7
X97.718Y-49.085
X100.218Y-39.085
X100.266Y-85.551
X100.266Y-90.551
X102.718Y-49.085
X110.266Y-88.051
X133.325Y-56.388
X135.825Y-46.388
X138.325Y-56.388
X172.8Y-61.277
X177.8Y-61.277
T8
X188.341Y-81.216
X188.341Y-91.376
T5
X185.039Y-58.1G85X185.039Y-56.581
G05
X189.609Y-52.261G85X188.089Y-52.261
G05
X191.139Y-58.1G85X191.139Y-56.581
G05
T0
M30
