%TF.GenerationSoftware,KiCad,Pcbnew,4.0.7-e2-6376~61~ubuntu18.04.1*%
%TF.CreationDate,2020-07-27T22:32:39+02:00*%
%TF.ProjectId,panel_02,70616E656C5F30322E6B696361645F70,rev?*%
%TF.FileFunction,Legend,Top*%
%FSLAX46Y46*%
G04 Gerber Fmt 4.6, Leading zero omitted, Abs format (unit mm)*
G04 Created by KiCad (PCBNEW 4.0.7-e2-6376~61~ubuntu18.04.1) date Mon Jul 27 22:32:39 2020*
%MOMM*%
%LPD*%
G01*
G04 APERTURE LIST*
%ADD10C,0.150000*%
%ADD11C,0.500000*%
%ADD12C,0.300000*%
%ADD13C,0.250000*%
%ADD14C,0.200000*%
%ADD15C,0.120000*%
G04 APERTURE END LIST*
D10*
D11*
X194500857Y-130000429D02*
X194977048Y-131333762D01*
X195453238Y-130000429D01*
X197262763Y-131333762D02*
X196119905Y-131333762D01*
X196691334Y-131333762D02*
X196691334Y-129333762D01*
X196500858Y-129619476D01*
X196310382Y-129809952D01*
X196119905Y-129905190D01*
X198119905Y-131143286D02*
X198215144Y-131238524D01*
X198119905Y-131333762D01*
X198024667Y-131238524D01*
X198119905Y-131143286D01*
X198119905Y-131333762D01*
X199453239Y-129333762D02*
X199643715Y-129333762D01*
X199834191Y-129429000D01*
X199929429Y-129524238D01*
X200024667Y-129714714D01*
X200119906Y-130095667D01*
X200119906Y-130571857D01*
X200024667Y-130952810D01*
X199929429Y-131143286D01*
X199834191Y-131238524D01*
X199643715Y-131333762D01*
X199453239Y-131333762D01*
X199262763Y-131238524D01*
X199167525Y-131143286D01*
X199072286Y-130952810D01*
X198977048Y-130571857D01*
X198977048Y-130095667D01*
X199072286Y-129714714D01*
X199167525Y-129524238D01*
X199262763Y-129429000D01*
X199453239Y-129333762D01*
D12*
X108585000Y-42525000D02*
X108751667Y-42691667D01*
X108585000Y-42858333D01*
X108418334Y-42691667D01*
X108585000Y-42525000D01*
X108585000Y-42858333D01*
X123698000Y-81387000D02*
X123864667Y-81553667D01*
X123698000Y-81720333D01*
X123531334Y-81553667D01*
X123698000Y-81387000D01*
X123698000Y-81720333D01*
D13*
X105108524Y-104846381D02*
X105108524Y-103846381D01*
X105346619Y-103846381D01*
X105489477Y-103894000D01*
X105584715Y-103989238D01*
X105632334Y-104084476D01*
X105679953Y-104274952D01*
X105679953Y-104417810D01*
X105632334Y-104608286D01*
X105584715Y-104703524D01*
X105489477Y-104798762D01*
X105346619Y-104846381D01*
X105108524Y-104846381D01*
X106060905Y-104560667D02*
X106537096Y-104560667D01*
X105965667Y-104846381D02*
X106299000Y-103846381D01*
X106632334Y-104846381D01*
X107537096Y-104751143D02*
X107489477Y-104798762D01*
X107346620Y-104846381D01*
X107251382Y-104846381D01*
X107108524Y-104798762D01*
X107013286Y-104703524D01*
X106965667Y-104608286D01*
X106918048Y-104417810D01*
X106918048Y-104274952D01*
X106965667Y-104084476D01*
X107013286Y-103989238D01*
X107108524Y-103894000D01*
X107251382Y-103846381D01*
X107346620Y-103846381D01*
X107489477Y-103894000D01*
X107537096Y-103941619D01*
X110815904Y-61158381D02*
X110815904Y-60158381D01*
X111196857Y-60158381D01*
X111292095Y-60206000D01*
X111339714Y-60253619D01*
X111387333Y-60348857D01*
X111387333Y-60491714D01*
X111339714Y-60586952D01*
X111292095Y-60634571D01*
X111196857Y-60682190D01*
X110815904Y-60682190D01*
X111958761Y-61158381D02*
X111863523Y-61110762D01*
X111815904Y-61063143D01*
X111768285Y-60967905D01*
X111768285Y-60682190D01*
X111815904Y-60586952D01*
X111863523Y-60539333D01*
X111958761Y-60491714D01*
X112101619Y-60491714D01*
X112196857Y-60539333D01*
X112244476Y-60586952D01*
X112292095Y-60682190D01*
X112292095Y-60967905D01*
X112244476Y-61063143D01*
X112196857Y-61110762D01*
X112101619Y-61158381D01*
X111958761Y-61158381D01*
X112577809Y-60491714D02*
X112958761Y-60491714D01*
X112720666Y-60158381D02*
X112720666Y-61015524D01*
X112768285Y-61110762D01*
X112863523Y-61158381D01*
X112958761Y-61158381D01*
X113292095Y-61063143D02*
X113339714Y-61110762D01*
X113292095Y-61158381D01*
X113244476Y-61110762D01*
X113292095Y-61063143D01*
X113292095Y-61158381D01*
X114530190Y-61158381D02*
X114530190Y-60491714D01*
X114530190Y-60586952D02*
X114577809Y-60539333D01*
X114673047Y-60491714D01*
X114815905Y-60491714D01*
X114911143Y-60539333D01*
X114958762Y-60634571D01*
X114958762Y-61158381D01*
X114958762Y-60634571D02*
X115006381Y-60539333D01*
X115101619Y-60491714D01*
X115244476Y-60491714D01*
X115339714Y-60539333D01*
X115387333Y-60634571D01*
X115387333Y-61158381D01*
X116244476Y-61110762D02*
X116149238Y-61158381D01*
X115958761Y-61158381D01*
X115863523Y-61110762D01*
X115815904Y-61015524D01*
X115815904Y-60634571D01*
X115863523Y-60539333D01*
X115958761Y-60491714D01*
X116149238Y-60491714D01*
X116244476Y-60539333D01*
X116292095Y-60634571D01*
X116292095Y-60729810D01*
X115815904Y-60825048D01*
X116577809Y-60491714D02*
X116958761Y-60491714D01*
X116720666Y-60158381D02*
X116720666Y-61015524D01*
X116768285Y-61110762D01*
X116863523Y-61158381D01*
X116958761Y-61158381D01*
X117673048Y-61110762D02*
X117577810Y-61158381D01*
X117387333Y-61158381D01*
X117292095Y-61110762D01*
X117244476Y-61015524D01*
X117244476Y-60634571D01*
X117292095Y-60539333D01*
X117387333Y-60491714D01*
X117577810Y-60491714D01*
X117673048Y-60539333D01*
X117720667Y-60634571D01*
X117720667Y-60729810D01*
X117244476Y-60825048D01*
X118149238Y-61158381D02*
X118149238Y-60491714D01*
X118149238Y-60682190D02*
X118196857Y-60586952D01*
X118244476Y-60539333D01*
X118339714Y-60491714D01*
X118434953Y-60491714D01*
X94472619Y-85034381D02*
X93996428Y-85034381D01*
X93996428Y-84034381D01*
X94805952Y-85034381D02*
X94805952Y-84367714D01*
X94805952Y-84034381D02*
X94758333Y-84082000D01*
X94805952Y-84129619D01*
X94853571Y-84082000D01*
X94805952Y-84034381D01*
X94805952Y-84129619D01*
X95710714Y-84367714D02*
X95710714Y-85177238D01*
X95663095Y-85272476D01*
X95615476Y-85320095D01*
X95520237Y-85367714D01*
X95377380Y-85367714D01*
X95282142Y-85320095D01*
X95710714Y-84986762D02*
X95615476Y-85034381D01*
X95424999Y-85034381D01*
X95329761Y-84986762D01*
X95282142Y-84939143D01*
X95234523Y-84843905D01*
X95234523Y-84558190D01*
X95282142Y-84462952D01*
X95329761Y-84415333D01*
X95424999Y-84367714D01*
X95615476Y-84367714D01*
X95710714Y-84415333D01*
X96186904Y-85034381D02*
X96186904Y-84034381D01*
X96615476Y-85034381D02*
X96615476Y-84510571D01*
X96567857Y-84415333D01*
X96472619Y-84367714D01*
X96329761Y-84367714D01*
X96234523Y-84415333D01*
X96186904Y-84462952D01*
X96948809Y-84367714D02*
X97329761Y-84367714D01*
X97091666Y-84034381D02*
X97091666Y-84891524D01*
X97139285Y-84986762D01*
X97234523Y-85034381D01*
X97329761Y-85034381D01*
X98377381Y-84986762D02*
X98472619Y-85034381D01*
X98663095Y-85034381D01*
X98758334Y-84986762D01*
X98805953Y-84891524D01*
X98805953Y-84843905D01*
X98758334Y-84748667D01*
X98663095Y-84701048D01*
X98520238Y-84701048D01*
X98425000Y-84653429D01*
X98377381Y-84558190D01*
X98377381Y-84510571D01*
X98425000Y-84415333D01*
X98520238Y-84367714D01*
X98663095Y-84367714D01*
X98758334Y-84415333D01*
X99615477Y-84986762D02*
X99520239Y-85034381D01*
X99329762Y-85034381D01*
X99234524Y-84986762D01*
X99186905Y-84891524D01*
X99186905Y-84510571D01*
X99234524Y-84415333D01*
X99329762Y-84367714D01*
X99520239Y-84367714D01*
X99615477Y-84415333D01*
X99663096Y-84510571D01*
X99663096Y-84605810D01*
X99186905Y-84701048D01*
X100091667Y-84367714D02*
X100091667Y-85034381D01*
X100091667Y-84462952D02*
X100139286Y-84415333D01*
X100234524Y-84367714D01*
X100377382Y-84367714D01*
X100472620Y-84415333D01*
X100520239Y-84510571D01*
X100520239Y-85034381D01*
X100948810Y-84986762D02*
X101044048Y-85034381D01*
X101234524Y-85034381D01*
X101329763Y-84986762D01*
X101377382Y-84891524D01*
X101377382Y-84843905D01*
X101329763Y-84748667D01*
X101234524Y-84701048D01*
X101091667Y-84701048D01*
X100996429Y-84653429D01*
X100948810Y-84558190D01*
X100948810Y-84510571D01*
X100996429Y-84415333D01*
X101091667Y-84367714D01*
X101234524Y-84367714D01*
X101329763Y-84415333D01*
X101948810Y-85034381D02*
X101853572Y-84986762D01*
X101805953Y-84939143D01*
X101758334Y-84843905D01*
X101758334Y-84558190D01*
X101805953Y-84462952D01*
X101853572Y-84415333D01*
X101948810Y-84367714D01*
X102091668Y-84367714D01*
X102186906Y-84415333D01*
X102234525Y-84462952D01*
X102282144Y-84558190D01*
X102282144Y-84843905D01*
X102234525Y-84939143D01*
X102186906Y-84986762D01*
X102091668Y-85034381D01*
X101948810Y-85034381D01*
X102710715Y-85034381D02*
X102710715Y-84367714D01*
X102710715Y-84558190D02*
X102758334Y-84462952D01*
X102805953Y-84415333D01*
X102901191Y-84367714D01*
X102996430Y-84367714D01*
X121841238Y-36917381D02*
X122412667Y-36917381D01*
X122126952Y-37917381D02*
X122126952Y-36917381D01*
X123126953Y-37869762D02*
X123031715Y-37917381D01*
X122841238Y-37917381D01*
X122746000Y-37869762D01*
X122698381Y-37774524D01*
X122698381Y-37393571D01*
X122746000Y-37298333D01*
X122841238Y-37250714D01*
X123031715Y-37250714D01*
X123126953Y-37298333D01*
X123174572Y-37393571D01*
X123174572Y-37488810D01*
X122698381Y-37584048D01*
X123603143Y-37917381D02*
X123603143Y-37250714D01*
X123603143Y-37345952D02*
X123650762Y-37298333D01*
X123746000Y-37250714D01*
X123888858Y-37250714D01*
X123984096Y-37298333D01*
X124031715Y-37393571D01*
X124031715Y-37917381D01*
X124031715Y-37393571D02*
X124079334Y-37298333D01*
X124174572Y-37250714D01*
X124317429Y-37250714D01*
X124412667Y-37298333D01*
X124460286Y-37393571D01*
X124460286Y-37917381D01*
X124936476Y-37250714D02*
X124936476Y-38250714D01*
X124936476Y-37298333D02*
X125031714Y-37250714D01*
X125222191Y-37250714D01*
X125317429Y-37298333D01*
X125365048Y-37345952D01*
X125412667Y-37441190D01*
X125412667Y-37726905D01*
X125365048Y-37822143D01*
X125317429Y-37869762D01*
X125222191Y-37917381D01*
X125031714Y-37917381D01*
X124936476Y-37869762D01*
X125841238Y-37822143D02*
X125888857Y-37869762D01*
X125841238Y-37917381D01*
X125793619Y-37869762D01*
X125841238Y-37822143D01*
X125841238Y-37917381D01*
X127031714Y-37869762D02*
X127126952Y-37917381D01*
X127317428Y-37917381D01*
X127412667Y-37869762D01*
X127460286Y-37774524D01*
X127460286Y-37726905D01*
X127412667Y-37631667D01*
X127317428Y-37584048D01*
X127174571Y-37584048D01*
X127079333Y-37536429D01*
X127031714Y-37441190D01*
X127031714Y-37393571D01*
X127079333Y-37298333D01*
X127174571Y-37250714D01*
X127317428Y-37250714D01*
X127412667Y-37298333D01*
X128269810Y-37869762D02*
X128174572Y-37917381D01*
X127984095Y-37917381D01*
X127888857Y-37869762D01*
X127841238Y-37774524D01*
X127841238Y-37393571D01*
X127888857Y-37298333D01*
X127984095Y-37250714D01*
X128174572Y-37250714D01*
X128269810Y-37298333D01*
X128317429Y-37393571D01*
X128317429Y-37488810D01*
X127841238Y-37584048D01*
X128746000Y-37250714D02*
X128746000Y-37917381D01*
X128746000Y-37345952D02*
X128793619Y-37298333D01*
X128888857Y-37250714D01*
X129031715Y-37250714D01*
X129126953Y-37298333D01*
X129174572Y-37393571D01*
X129174572Y-37917381D01*
X129603143Y-37869762D02*
X129698381Y-37917381D01*
X129888857Y-37917381D01*
X129984096Y-37869762D01*
X130031715Y-37774524D01*
X130031715Y-37726905D01*
X129984096Y-37631667D01*
X129888857Y-37584048D01*
X129746000Y-37584048D01*
X129650762Y-37536429D01*
X129603143Y-37441190D01*
X129603143Y-37393571D01*
X129650762Y-37298333D01*
X129746000Y-37250714D01*
X129888857Y-37250714D01*
X129984096Y-37298333D01*
X130603143Y-37917381D02*
X130507905Y-37869762D01*
X130460286Y-37822143D01*
X130412667Y-37726905D01*
X130412667Y-37441190D01*
X130460286Y-37345952D01*
X130507905Y-37298333D01*
X130603143Y-37250714D01*
X130746001Y-37250714D01*
X130841239Y-37298333D01*
X130888858Y-37345952D01*
X130936477Y-37441190D01*
X130936477Y-37726905D01*
X130888858Y-37822143D01*
X130841239Y-37869762D01*
X130746001Y-37917381D01*
X130603143Y-37917381D01*
X131365048Y-37917381D02*
X131365048Y-37250714D01*
X131365048Y-37441190D02*
X131412667Y-37345952D01*
X131460286Y-37298333D01*
X131555524Y-37250714D01*
X131650763Y-37250714D01*
X110014332Y-37504667D02*
X110490523Y-37504667D01*
X109919094Y-37790381D02*
X110252427Y-36790381D01*
X110585761Y-37790381D01*
X110919094Y-37123714D02*
X110919094Y-37790381D01*
X110919094Y-37218952D02*
X110966713Y-37171333D01*
X111061951Y-37123714D01*
X111204809Y-37123714D01*
X111300047Y-37171333D01*
X111347666Y-37266571D01*
X111347666Y-37790381D01*
X112252428Y-37123714D02*
X112252428Y-37933238D01*
X112204809Y-38028476D01*
X112157190Y-38076095D01*
X112061951Y-38123714D01*
X111919094Y-38123714D01*
X111823856Y-38076095D01*
X112252428Y-37742762D02*
X112157190Y-37790381D01*
X111966713Y-37790381D01*
X111871475Y-37742762D01*
X111823856Y-37695143D01*
X111776237Y-37599905D01*
X111776237Y-37314190D01*
X111823856Y-37218952D01*
X111871475Y-37171333D01*
X111966713Y-37123714D01*
X112157190Y-37123714D01*
X112252428Y-37171333D01*
X112871475Y-37790381D02*
X112776237Y-37742762D01*
X112728618Y-37647524D01*
X112728618Y-36790381D01*
X113633381Y-37742762D02*
X113538143Y-37790381D01*
X113347666Y-37790381D01*
X113252428Y-37742762D01*
X113204809Y-37647524D01*
X113204809Y-37266571D01*
X113252428Y-37171333D01*
X113347666Y-37123714D01*
X113538143Y-37123714D01*
X113633381Y-37171333D01*
X113681000Y-37266571D01*
X113681000Y-37361810D01*
X113204809Y-37457048D01*
X114823857Y-37742762D02*
X114919095Y-37790381D01*
X115109571Y-37790381D01*
X115204810Y-37742762D01*
X115252429Y-37647524D01*
X115252429Y-37599905D01*
X115204810Y-37504667D01*
X115109571Y-37457048D01*
X114966714Y-37457048D01*
X114871476Y-37409429D01*
X114823857Y-37314190D01*
X114823857Y-37266571D01*
X114871476Y-37171333D01*
X114966714Y-37123714D01*
X115109571Y-37123714D01*
X115204810Y-37171333D01*
X116061953Y-37742762D02*
X115966715Y-37790381D01*
X115776238Y-37790381D01*
X115681000Y-37742762D01*
X115633381Y-37647524D01*
X115633381Y-37266571D01*
X115681000Y-37171333D01*
X115776238Y-37123714D01*
X115966715Y-37123714D01*
X116061953Y-37171333D01*
X116109572Y-37266571D01*
X116109572Y-37361810D01*
X115633381Y-37457048D01*
X116538143Y-37123714D02*
X116538143Y-37790381D01*
X116538143Y-37218952D02*
X116585762Y-37171333D01*
X116681000Y-37123714D01*
X116823858Y-37123714D01*
X116919096Y-37171333D01*
X116966715Y-37266571D01*
X116966715Y-37790381D01*
X117395286Y-37742762D02*
X117490524Y-37790381D01*
X117681000Y-37790381D01*
X117776239Y-37742762D01*
X117823858Y-37647524D01*
X117823858Y-37599905D01*
X117776239Y-37504667D01*
X117681000Y-37457048D01*
X117538143Y-37457048D01*
X117442905Y-37409429D01*
X117395286Y-37314190D01*
X117395286Y-37266571D01*
X117442905Y-37171333D01*
X117538143Y-37123714D01*
X117681000Y-37123714D01*
X117776239Y-37171333D01*
X118395286Y-37790381D02*
X118300048Y-37742762D01*
X118252429Y-37695143D01*
X118204810Y-37599905D01*
X118204810Y-37314190D01*
X118252429Y-37218952D01*
X118300048Y-37171333D01*
X118395286Y-37123714D01*
X118538144Y-37123714D01*
X118633382Y-37171333D01*
X118681001Y-37218952D01*
X118728620Y-37314190D01*
X118728620Y-37599905D01*
X118681001Y-37695143D01*
X118633382Y-37742762D01*
X118538144Y-37790381D01*
X118395286Y-37790381D01*
X119157191Y-37790381D02*
X119157191Y-37123714D01*
X119157191Y-37314190D02*
X119204810Y-37218952D01*
X119252429Y-37171333D01*
X119347667Y-37123714D01*
X119442906Y-37123714D01*
X160329953Y-125531571D02*
X160472810Y-125579190D01*
X160520429Y-125626810D01*
X160568048Y-125722048D01*
X160568048Y-125864905D01*
X160520429Y-125960143D01*
X160472810Y-126007762D01*
X160377572Y-126055381D01*
X159996619Y-126055381D01*
X159996619Y-125055381D01*
X160329953Y-125055381D01*
X160425191Y-125103000D01*
X160472810Y-125150619D01*
X160520429Y-125245857D01*
X160520429Y-125341095D01*
X160472810Y-125436333D01*
X160425191Y-125483952D01*
X160329953Y-125531571D01*
X159996619Y-125531571D01*
X160996619Y-125055381D02*
X160996619Y-125864905D01*
X161044238Y-125960143D01*
X161091857Y-126007762D01*
X161187095Y-126055381D01*
X161377572Y-126055381D01*
X161472810Y-126007762D01*
X161520429Y-125960143D01*
X161568048Y-125864905D01*
X161568048Y-125055381D01*
X161901381Y-125055381D02*
X162472810Y-125055381D01*
X162187095Y-126055381D02*
X162187095Y-125055381D01*
X162663286Y-125055381D02*
X163234715Y-125055381D01*
X162949000Y-126055381D02*
X162949000Y-125055381D01*
X163758524Y-125055381D02*
X163949001Y-125055381D01*
X164044239Y-125103000D01*
X164139477Y-125198238D01*
X164187096Y-125388714D01*
X164187096Y-125722048D01*
X164139477Y-125912524D01*
X164044239Y-126007762D01*
X163949001Y-126055381D01*
X163758524Y-126055381D01*
X163663286Y-126007762D01*
X163568048Y-125912524D01*
X163520429Y-125722048D01*
X163520429Y-125388714D01*
X163568048Y-125198238D01*
X163663286Y-125103000D01*
X163758524Y-125055381D01*
X164615667Y-126055381D02*
X164615667Y-125055381D01*
X165187096Y-126055381D01*
X165187096Y-125055381D01*
X166377572Y-125150619D02*
X166425191Y-125103000D01*
X166520429Y-125055381D01*
X166758525Y-125055381D01*
X166853763Y-125103000D01*
X166901382Y-125150619D01*
X166949001Y-125245857D01*
X166949001Y-125341095D01*
X166901382Y-125483952D01*
X166329953Y-126055381D01*
X166949001Y-126055381D01*
X142803953Y-125404571D02*
X142946810Y-125452190D01*
X142994429Y-125499810D01*
X143042048Y-125595048D01*
X143042048Y-125737905D01*
X142994429Y-125833143D01*
X142946810Y-125880762D01*
X142851572Y-125928381D01*
X142470619Y-125928381D01*
X142470619Y-124928381D01*
X142803953Y-124928381D01*
X142899191Y-124976000D01*
X142946810Y-125023619D01*
X142994429Y-125118857D01*
X142994429Y-125214095D01*
X142946810Y-125309333D01*
X142899191Y-125356952D01*
X142803953Y-125404571D01*
X142470619Y-125404571D01*
X143470619Y-124928381D02*
X143470619Y-125737905D01*
X143518238Y-125833143D01*
X143565857Y-125880762D01*
X143661095Y-125928381D01*
X143851572Y-125928381D01*
X143946810Y-125880762D01*
X143994429Y-125833143D01*
X144042048Y-125737905D01*
X144042048Y-124928381D01*
X144375381Y-124928381D02*
X144946810Y-124928381D01*
X144661095Y-125928381D02*
X144661095Y-124928381D01*
X145137286Y-124928381D02*
X145708715Y-124928381D01*
X145423000Y-125928381D02*
X145423000Y-124928381D01*
X146232524Y-124928381D02*
X146423001Y-124928381D01*
X146518239Y-124976000D01*
X146613477Y-125071238D01*
X146661096Y-125261714D01*
X146661096Y-125595048D01*
X146613477Y-125785524D01*
X146518239Y-125880762D01*
X146423001Y-125928381D01*
X146232524Y-125928381D01*
X146137286Y-125880762D01*
X146042048Y-125785524D01*
X145994429Y-125595048D01*
X145994429Y-125261714D01*
X146042048Y-125071238D01*
X146137286Y-124976000D01*
X146232524Y-124928381D01*
X147089667Y-125928381D02*
X147089667Y-124928381D01*
X147661096Y-125928381D01*
X147661096Y-124928381D01*
X149423001Y-125928381D02*
X148851572Y-125928381D01*
X149137286Y-125928381D02*
X149137286Y-124928381D01*
X149042048Y-125071238D01*
X148946810Y-125166476D01*
X148851572Y-125214095D01*
D14*
X148348668Y-121793000D02*
G75*
G03X148348668Y-121793000I-2552668J0D01*
G01*
X165989000Y-121793000D02*
G75*
G03X165989000Y-121793000I-2540000J0D01*
G01*
D10*
X124651000Y-82487000D02*
X124651000Y-83062000D01*
X139001000Y-82487000D02*
X139001000Y-83162000D01*
X139001000Y-96837000D02*
X139001000Y-96162000D01*
X124651000Y-96837000D02*
X124651000Y-96162000D01*
X124651000Y-82487000D02*
X125326000Y-82487000D01*
X124651000Y-96837000D02*
X125326000Y-96837000D01*
X139001000Y-96837000D02*
X138326000Y-96837000D01*
X139001000Y-82487000D02*
X138326000Y-82487000D01*
X124651000Y-83062000D02*
X123376000Y-83062000D01*
D15*
X129270000Y-108327000D02*
X127270000Y-108327000D01*
X127270000Y-110367000D02*
X129270000Y-110367000D01*
X134890000Y-110367000D02*
X136890000Y-110367000D01*
X136890000Y-108327000D02*
X134890000Y-108327000D01*
X76533000Y-103378000D02*
G75*
G03X76533000Y-103378000I-6100000J0D01*
G01*
X120654000Y-75803000D02*
X120654000Y-73803000D01*
X118614000Y-73803000D02*
X118614000Y-75803000D01*
X77232000Y-111891000D02*
X79232000Y-111891000D01*
X79232000Y-109851000D02*
X77232000Y-109851000D01*
X112506000Y-101469000D02*
X110506000Y-101469000D01*
X110506000Y-103509000D02*
X112506000Y-103509000D01*
X181479000Y-44720000D02*
X181479000Y-46720000D01*
X183519000Y-46720000D02*
X183519000Y-44720000D01*
X185416000Y-44720000D02*
X185416000Y-46720000D01*
X187456000Y-46720000D02*
X187456000Y-44720000D01*
X177669000Y-44847000D02*
X177669000Y-46847000D01*
X179709000Y-46847000D02*
X179709000Y-44847000D01*
X124476000Y-74680000D02*
X126476000Y-74680000D01*
X126476000Y-72640000D02*
X124476000Y-72640000D01*
X167071000Y-104954000D02*
X168971000Y-104954000D01*
X168971000Y-104954000D02*
X168971000Y-100254000D01*
X167071000Y-104954000D02*
X167071000Y-100254000D01*
X175453000Y-104827000D02*
X177353000Y-104827000D01*
X177353000Y-104827000D02*
X177353000Y-100127000D01*
X175453000Y-104827000D02*
X175453000Y-100127000D01*
X184216000Y-104700000D02*
X186116000Y-104700000D01*
X186116000Y-104700000D02*
X186116000Y-100000000D01*
X184216000Y-104700000D02*
X184216000Y-100000000D01*
X192598000Y-104573000D02*
X194498000Y-104573000D01*
X194498000Y-104573000D02*
X194498000Y-99873000D01*
X192598000Y-104573000D02*
X192598000Y-99873000D01*
X186519000Y-50308000D02*
X179219000Y-50308000D01*
X179219000Y-50308000D02*
X179219000Y-52308000D01*
X179219000Y-52308000D02*
X186519000Y-52308000D01*
X191500000Y-50375000D02*
X191500000Y-43075000D01*
X191500000Y-43075000D02*
X189500000Y-43075000D01*
X189500000Y-43075000D02*
X189500000Y-50375000D01*
X74370000Y-49342000D02*
X74370000Y-51242000D01*
X74370000Y-51242000D02*
X79070000Y-51242000D01*
X74370000Y-49342000D02*
X79070000Y-49342000D01*
X172045000Y-56265000D02*
X171925000Y-56125000D01*
X171925000Y-56125000D02*
X171835000Y-55965000D01*
X171835000Y-55965000D02*
X171785000Y-55715000D01*
X171785000Y-55715000D02*
X171815000Y-55455000D01*
X171815000Y-55455000D02*
X171965000Y-55195000D01*
X171965000Y-55195000D02*
X172185000Y-55025000D01*
X172185000Y-55025000D02*
X172475000Y-54945000D01*
X172475000Y-54945000D02*
X172765000Y-54985000D01*
X172765000Y-54985000D02*
X172945000Y-55065000D01*
X172945000Y-55065000D02*
X173075000Y-55215000D01*
X180645000Y-59045000D02*
G75*
G03X180645000Y-59045000I-4750000J0D01*
G01*
X74116000Y-45151000D02*
X74116000Y-47051000D01*
X74116000Y-47051000D02*
X78816000Y-47051000D01*
X74116000Y-45151000D02*
X78816000Y-45151000D01*
X65091000Y-76454000D02*
X65091000Y-89214000D01*
X65091000Y-89214000D02*
X67751000Y-89214000D01*
X67751000Y-89214000D02*
X67751000Y-76454000D01*
X67751000Y-76454000D02*
X65091000Y-76454000D01*
X65091000Y-75184000D02*
X65091000Y-73854000D01*
X65091000Y-73854000D02*
X66421000Y-73854000D01*
X207000000Y-60026000D02*
X207000000Y-51226000D01*
X203200000Y-51226000D02*
X210900000Y-51226000D01*
X210900000Y-51226000D02*
X210900000Y-60026000D01*
X210900000Y-60026000D02*
X210700000Y-60026000D01*
X197300000Y-53076000D02*
X197300000Y-51226000D01*
X197300000Y-51226000D02*
X198150000Y-51226000D01*
X210800000Y-60026000D02*
X197300000Y-60026000D01*
X197300000Y-60026000D02*
X197300000Y-58176000D01*
X92583000Y-132521000D02*
X107883000Y-132521000D01*
X107883000Y-132521000D02*
X107883000Y-129861000D01*
X107883000Y-129861000D02*
X92583000Y-129861000D01*
X92583000Y-129861000D02*
X92583000Y-132521000D01*
X91313000Y-132521000D02*
X89983000Y-132521000D01*
X89983000Y-132521000D02*
X89983000Y-131191000D01*
X138557000Y-42192000D02*
X176717000Y-42192000D01*
X176717000Y-42192000D02*
X176717000Y-39532000D01*
X176717000Y-39532000D02*
X138557000Y-39532000D01*
X138557000Y-39532000D02*
X138557000Y-42192000D01*
X137287000Y-42192000D02*
X135957000Y-42192000D01*
X135957000Y-42192000D02*
X135957000Y-40862000D01*
X192201000Y-59563000D02*
G75*
G03X192201000Y-59563000I-5090000J0D01*
G01*
X175570000Y-47627000D02*
X174640000Y-47627000D01*
X172410000Y-47627000D02*
X173340000Y-47627000D01*
X172410000Y-47627000D02*
X172410000Y-50787000D01*
X175570000Y-47627000D02*
X175570000Y-49087000D01*
X131135000Y-57656000D02*
X132065000Y-57656000D01*
X134295000Y-57656000D02*
X133365000Y-57656000D01*
X134295000Y-57656000D02*
X134295000Y-54496000D01*
X131135000Y-57656000D02*
X131135000Y-56196000D01*
X79758000Y-99004000D02*
X79758000Y-99934000D01*
X79758000Y-102164000D02*
X79758000Y-101234000D01*
X79758000Y-102164000D02*
X82918000Y-102164000D01*
X79758000Y-99004000D02*
X81218000Y-99004000D01*
X150424000Y-57406000D02*
X149494000Y-57406000D01*
X147264000Y-57406000D02*
X148194000Y-57406000D01*
X147264000Y-57406000D02*
X147264000Y-60566000D01*
X150424000Y-57406000D02*
X150424000Y-58866000D01*
X82788000Y-40821000D02*
X80788000Y-40821000D01*
X80788000Y-38681000D02*
X82788000Y-38681000D01*
X72787000Y-81734000D02*
X74787000Y-81734000D01*
X74787000Y-83874000D02*
X72787000Y-83874000D01*
X181537000Y-100600000D02*
X181537000Y-102600000D01*
X179397000Y-102600000D02*
X179397000Y-100600000D01*
X173282000Y-100854000D02*
X173282000Y-102854000D01*
X171142000Y-102854000D02*
X171142000Y-100854000D01*
X190173000Y-100473000D02*
X190173000Y-102473000D01*
X188033000Y-102473000D02*
X188033000Y-100473000D01*
X198682000Y-100473000D02*
X198682000Y-102473000D01*
X196542000Y-102473000D02*
X196542000Y-100473000D01*
X91132000Y-85582000D02*
X91132000Y-83582000D01*
X93272000Y-83582000D02*
X93272000Y-85582000D01*
X93062000Y-90297000D02*
G75*
G03X93062000Y-90297000I-860000J0D01*
G01*
X92202000Y-91157000D02*
X92202000Y-94377000D01*
X108404000Y-73009000D02*
X108404000Y-71009000D01*
X110544000Y-71009000D02*
X110544000Y-73009000D01*
X87392000Y-112341000D02*
X89392000Y-112341000D01*
X89392000Y-114481000D02*
X87392000Y-114481000D01*
X79359000Y-116767000D02*
X77359000Y-116767000D01*
X77359000Y-114627000D02*
X79359000Y-114627000D01*
X112506000Y-100130000D02*
X110506000Y-100130000D01*
X110506000Y-97990000D02*
X112506000Y-97990000D01*
X77486000Y-118437000D02*
X79486000Y-118437000D01*
X79486000Y-120577000D02*
X77486000Y-120577000D01*
X129556000Y-50111000D02*
X131556000Y-50111000D01*
X131556000Y-52251000D02*
X129556000Y-52251000D01*
X129495000Y-56261000D02*
G75*
G03X129495000Y-56261000I-1860000J0D01*
G01*
X125775000Y-56261000D02*
X124055000Y-56261000D01*
X89138000Y-105845000D02*
X87138000Y-105845000D01*
X87138000Y-103705000D02*
X89138000Y-103705000D01*
X87938000Y-97933000D02*
X87938000Y-99933000D01*
X85798000Y-99933000D02*
X85798000Y-97933000D01*
X76343000Y-94180000D02*
X78343000Y-94180000D01*
X78343000Y-96320000D02*
X76343000Y-96320000D01*
X140351000Y-57858000D02*
X142351000Y-57858000D01*
X142351000Y-59998000D02*
X140351000Y-59998000D01*
X149590000Y-65205000D02*
X147590000Y-65205000D01*
X147590000Y-63065000D02*
X149590000Y-63065000D01*
X147520000Y-51673000D02*
X147520000Y-49673000D01*
X149660000Y-49673000D02*
X149660000Y-51673000D01*
X116348000Y-84147000D02*
X118348000Y-84147000D01*
X118348000Y-86287000D02*
X116348000Y-86287000D01*
X115771000Y-53039000D02*
G75*
G03X115771000Y-53039000I-1050000J0D01*
G01*
X109760000Y-58099000D02*
X109760000Y-47979000D01*
X119681000Y-58099000D02*
X119681000Y-47979000D01*
X109760000Y-58099000D02*
X110856000Y-58099000D01*
X113586000Y-58099000D02*
X115856000Y-58099000D01*
X118586000Y-58099000D02*
X119681000Y-58099000D01*
X109760000Y-47979000D02*
X113356000Y-47979000D01*
X116086000Y-47979000D02*
X119681000Y-47979000D01*
X69307214Y-114899000D02*
G75*
G03X69307214Y-114899000I-1414214J0D01*
G01*
X64923000Y-118019000D02*
X70863000Y-118019000D01*
X64923000Y-111779000D02*
X70863000Y-111779000D01*
X64773000Y-116239000D02*
X64773000Y-113559000D01*
X71013000Y-113559000D02*
X71013000Y-116239000D01*
X179670214Y-118963000D02*
G75*
G03X179670214Y-118963000I-1414214J0D01*
G01*
X175286000Y-122083000D02*
X181226000Y-122083000D01*
X175286000Y-115843000D02*
X181226000Y-115843000D01*
X175136000Y-120303000D02*
X175136000Y-117623000D01*
X181376000Y-117623000D02*
X181376000Y-120303000D01*
X195799214Y-118963000D02*
G75*
G03X195799214Y-118963000I-1414214J0D01*
G01*
X191415000Y-122083000D02*
X197355000Y-122083000D01*
X191415000Y-115843000D02*
X197355000Y-115843000D01*
X191265000Y-120303000D02*
X191265000Y-117623000D01*
X197505000Y-117623000D02*
X197505000Y-120303000D01*
D10*
X203327000Y-84074000D02*
X205359000Y-84074000D01*
X205359000Y-84074000D02*
X205359000Y-94234000D01*
X200279000Y-94234000D02*
X195707000Y-94234000D01*
X195707000Y-94234000D02*
X195707000Y-84074000D01*
X195707000Y-84074000D02*
X200279000Y-84074000D01*
X205359000Y-94234000D02*
X203327000Y-94234000D01*
D15*
X130203000Y-101656000D02*
X133703000Y-101656000D01*
X130203000Y-106116000D02*
X133703000Y-106116000D01*
X122628000Y-101836000D02*
X122628000Y-105936000D01*
X127652000Y-78232000D02*
G75*
G03X127652000Y-78232000I-1160000J0D01*
G01*
X125332000Y-78232000D02*
X125052000Y-78232000D01*
D10*
X108574000Y-110004000D02*
X108574000Y-106404000D01*
X108574000Y-106404000D02*
X109074000Y-105904000D01*
X109074000Y-105904000D02*
X109874000Y-105904000D01*
X109874000Y-105904000D02*
X110374000Y-106404000D01*
X110374000Y-106404000D02*
X110374000Y-110004000D01*
X110374000Y-110004000D02*
X109874000Y-110504000D01*
X109874000Y-110504000D02*
X109074000Y-110504000D01*
X109074000Y-110504000D02*
X108574000Y-110004000D01*
X186160000Y-88000000D02*
X189760000Y-88000000D01*
X189760000Y-88000000D02*
X190260000Y-88500000D01*
X190260000Y-88500000D02*
X190260000Y-89300000D01*
X190260000Y-89300000D02*
X189760000Y-89800000D01*
X189760000Y-89800000D02*
X186160000Y-89800000D01*
X186160000Y-89800000D02*
X185660000Y-89300000D01*
X185660000Y-89300000D02*
X185660000Y-88500000D01*
X185660000Y-88500000D02*
X186160000Y-88000000D01*
X66559000Y-61954000D02*
X66559000Y-65554000D01*
X66559000Y-65554000D02*
X66059000Y-66054000D01*
X66059000Y-66054000D02*
X65259000Y-66054000D01*
X65259000Y-66054000D02*
X64759000Y-65554000D01*
X64759000Y-65554000D02*
X64759000Y-61954000D01*
X64759000Y-61954000D02*
X65259000Y-61454000D01*
X65259000Y-61454000D02*
X66059000Y-61454000D01*
X66059000Y-61454000D02*
X66559000Y-61954000D01*
X68696000Y-65554000D02*
X68696000Y-61954000D01*
X68696000Y-61954000D02*
X69196000Y-61454000D01*
X69196000Y-61454000D02*
X69996000Y-61454000D01*
X69996000Y-61454000D02*
X70496000Y-61954000D01*
X70496000Y-61954000D02*
X70496000Y-65554000D01*
X70496000Y-65554000D02*
X69996000Y-66054000D01*
X69996000Y-66054000D02*
X69196000Y-66054000D01*
X69196000Y-66054000D02*
X68696000Y-65554000D01*
X125592000Y-44091000D02*
X125592000Y-40491000D01*
X125592000Y-40491000D02*
X126092000Y-39991000D01*
X126092000Y-39991000D02*
X126892000Y-39991000D01*
X126892000Y-39991000D02*
X127392000Y-40491000D01*
X127392000Y-40491000D02*
X127392000Y-44091000D01*
X127392000Y-44091000D02*
X126892000Y-44591000D01*
X126892000Y-44591000D02*
X126092000Y-44591000D01*
X126092000Y-44591000D02*
X125592000Y-44091000D01*
X112638000Y-44345000D02*
X112638000Y-40745000D01*
X112638000Y-40745000D02*
X113138000Y-40245000D01*
X113138000Y-40245000D02*
X113938000Y-40245000D01*
X113938000Y-40245000D02*
X114438000Y-40745000D01*
X114438000Y-40745000D02*
X114438000Y-44345000D01*
X114438000Y-44345000D02*
X113938000Y-44845000D01*
X113938000Y-44845000D02*
X113138000Y-44845000D01*
X113138000Y-44845000D02*
X112638000Y-44345000D01*
X186160000Y-83174000D02*
X189760000Y-83174000D01*
X189760000Y-83174000D02*
X190260000Y-83674000D01*
X190260000Y-83674000D02*
X190260000Y-84474000D01*
X190260000Y-84474000D02*
X189760000Y-84974000D01*
X189760000Y-84974000D02*
X186160000Y-84974000D01*
X186160000Y-84974000D02*
X185660000Y-84474000D01*
X185660000Y-84474000D02*
X185660000Y-83674000D01*
X185660000Y-83674000D02*
X186160000Y-83174000D01*
X117210000Y-44345000D02*
X117210000Y-40745000D01*
X117210000Y-40745000D02*
X117710000Y-40245000D01*
X117710000Y-40245000D02*
X118510000Y-40245000D01*
X118510000Y-40245000D02*
X119010000Y-40745000D01*
X119010000Y-40745000D02*
X119010000Y-44345000D01*
X119010000Y-44345000D02*
X118510000Y-44845000D01*
X118510000Y-44845000D02*
X117710000Y-44845000D01*
X117710000Y-44845000D02*
X117210000Y-44345000D01*
X92180000Y-78475000D02*
X95780000Y-78475000D01*
X95780000Y-78475000D02*
X96280000Y-78975000D01*
X96280000Y-78975000D02*
X96280000Y-79775000D01*
X96280000Y-79775000D02*
X95780000Y-80275000D01*
X95780000Y-80275000D02*
X92180000Y-80275000D01*
X92180000Y-80275000D02*
X91680000Y-79775000D01*
X91680000Y-79775000D02*
X91680000Y-78975000D01*
X91680000Y-78975000D02*
X92180000Y-78475000D01*
X186160000Y-92826000D02*
X189760000Y-92826000D01*
X189760000Y-92826000D02*
X190260000Y-93326000D01*
X190260000Y-93326000D02*
X190260000Y-94126000D01*
X190260000Y-94126000D02*
X189760000Y-94626000D01*
X189760000Y-94626000D02*
X186160000Y-94626000D01*
X186160000Y-94626000D02*
X185660000Y-94126000D01*
X185660000Y-94126000D02*
X185660000Y-93326000D01*
X185660000Y-93326000D02*
X186160000Y-92826000D01*
X114438000Y-106404000D02*
X114438000Y-110004000D01*
X114438000Y-110004000D02*
X113938000Y-110504000D01*
X113938000Y-110504000D02*
X113138000Y-110504000D01*
X113138000Y-110504000D02*
X112638000Y-110004000D01*
X112638000Y-110004000D02*
X112638000Y-106404000D01*
X112638000Y-106404000D02*
X113138000Y-105904000D01*
X113138000Y-105904000D02*
X113938000Y-105904000D01*
X113938000Y-105904000D02*
X114438000Y-106404000D01*
X100943000Y-80126000D02*
X104543000Y-80126000D01*
X104543000Y-80126000D02*
X105043000Y-80626000D01*
X105043000Y-80626000D02*
X105043000Y-81426000D01*
X105043000Y-81426000D02*
X104543000Y-81926000D01*
X104543000Y-81926000D02*
X100943000Y-81926000D01*
X100943000Y-81926000D02*
X100443000Y-81426000D01*
X100443000Y-81426000D02*
X100443000Y-80626000D01*
X100443000Y-80626000D02*
X100943000Y-80126000D01*
X88414000Y-81799000D02*
X84814000Y-81799000D01*
X84814000Y-81799000D02*
X84314000Y-81299000D01*
X84314000Y-81299000D02*
X84314000Y-80499000D01*
X84314000Y-80499000D02*
X84814000Y-79999000D01*
X84814000Y-79999000D02*
X88414000Y-79999000D01*
X88414000Y-79999000D02*
X88914000Y-80499000D01*
X88914000Y-80499000D02*
X88914000Y-81299000D01*
X88914000Y-81299000D02*
X88414000Y-81799000D01*
X121401000Y-44218000D02*
X121401000Y-40618000D01*
X121401000Y-40618000D02*
X121901000Y-40118000D01*
X121901000Y-40118000D02*
X122701000Y-40118000D01*
X122701000Y-40118000D02*
X123201000Y-40618000D01*
X123201000Y-40618000D02*
X123201000Y-44218000D01*
X123201000Y-44218000D02*
X122701000Y-44718000D01*
X122701000Y-44718000D02*
X121901000Y-44718000D01*
X121901000Y-44718000D02*
X121401000Y-44218000D01*
X98447000Y-75068000D02*
X94847000Y-75068000D01*
X94847000Y-75068000D02*
X94347000Y-74568000D01*
X94347000Y-74568000D02*
X94347000Y-73768000D01*
X94347000Y-73768000D02*
X94847000Y-73268000D01*
X94847000Y-73268000D02*
X98447000Y-73268000D01*
X98447000Y-73268000D02*
X98947000Y-73768000D01*
X98947000Y-73768000D02*
X98947000Y-74568000D01*
X98947000Y-74568000D02*
X98447000Y-75068000D01*
D15*
X106413300Y-56349900D02*
X106413300Y-44234100D01*
X106413300Y-44234100D02*
X104533700Y-44234100D01*
X104584500Y-56349900D02*
X106400600Y-56349900D01*
X104648000Y-41224200D02*
X106768900Y-41224200D01*
X104660700Y-59359800D02*
X106768900Y-59347100D01*
X106768900Y-59347100D02*
X106768900Y-41224200D01*
X106409800Y-51571400D02*
G75*
G02X106409800Y-49571400I0J1000000D01*
G01*
X104581000Y-44232000D02*
X68901000Y-44232000D01*
X68901000Y-44232000D02*
X68901000Y-56352000D01*
X68901000Y-56352000D02*
X104581000Y-56352000D01*
X104641000Y-41232000D02*
X68841000Y-41232000D01*
X68841000Y-41232000D02*
X68841000Y-59352000D01*
X68841000Y-59352000D02*
X104641000Y-59352000D01*
X74243000Y-53660000D02*
X74243000Y-55560000D01*
X74243000Y-55560000D02*
X78943000Y-55560000D01*
X74243000Y-53660000D02*
X78943000Y-53660000D01*
D10*
X131064095Y-79664381D02*
X131064095Y-80473905D01*
X131111714Y-80569143D01*
X131159333Y-80616762D01*
X131254571Y-80664381D01*
X131445048Y-80664381D01*
X131540286Y-80616762D01*
X131587905Y-80569143D01*
X131635524Y-80473905D01*
X131635524Y-79664381D01*
X132016476Y-79664381D02*
X132635524Y-79664381D01*
X132302190Y-80045333D01*
X132445048Y-80045333D01*
X132540286Y-80092952D01*
X132587905Y-80140571D01*
X132635524Y-80235810D01*
X132635524Y-80473905D01*
X132587905Y-80569143D01*
X132540286Y-80616762D01*
X132445048Y-80664381D01*
X132159333Y-80664381D01*
X132064095Y-80616762D01*
X132016476Y-80569143D01*
X126722381Y-111958381D02*
X126150952Y-111958381D01*
X126436666Y-111958381D02*
X126436666Y-110958381D01*
X126341428Y-111101238D01*
X126246190Y-111196476D01*
X126150952Y-111244095D01*
X127293809Y-111386952D02*
X127198571Y-111339333D01*
X127150952Y-111291714D01*
X127103333Y-111196476D01*
X127103333Y-111148857D01*
X127150952Y-111053619D01*
X127198571Y-111006000D01*
X127293809Y-110958381D01*
X127484286Y-110958381D01*
X127579524Y-111006000D01*
X127627143Y-111053619D01*
X127674762Y-111148857D01*
X127674762Y-111196476D01*
X127627143Y-111291714D01*
X127579524Y-111339333D01*
X127484286Y-111386952D01*
X127293809Y-111386952D01*
X127198571Y-111434571D01*
X127150952Y-111482190D01*
X127103333Y-111577429D01*
X127103333Y-111767905D01*
X127150952Y-111863143D01*
X127198571Y-111910762D01*
X127293809Y-111958381D01*
X127484286Y-111958381D01*
X127579524Y-111910762D01*
X127627143Y-111863143D01*
X127674762Y-111767905D01*
X127674762Y-111577429D01*
X127627143Y-111482190D01*
X127579524Y-111434571D01*
X127484286Y-111386952D01*
X128103333Y-111291714D02*
X128103333Y-112291714D01*
X128103333Y-111339333D02*
X128198571Y-111291714D01*
X128389048Y-111291714D01*
X128484286Y-111339333D01*
X128531905Y-111386952D01*
X128579524Y-111482190D01*
X128579524Y-111767905D01*
X128531905Y-111863143D01*
X128484286Y-111910762D01*
X128389048Y-111958381D01*
X128198571Y-111958381D01*
X128103333Y-111910762D01*
X129341429Y-111434571D02*
X129008095Y-111434571D01*
X129008095Y-111958381D02*
X129008095Y-110958381D01*
X129484286Y-110958381D01*
X130389048Y-111958381D02*
X129817619Y-111958381D01*
X130103333Y-111958381D02*
X130103333Y-110958381D01*
X130008095Y-111101238D01*
X129912857Y-111196476D01*
X129817619Y-111244095D01*
X134342381Y-111958381D02*
X133770952Y-111958381D01*
X134056666Y-111958381D02*
X134056666Y-110958381D01*
X133961428Y-111101238D01*
X133866190Y-111196476D01*
X133770952Y-111244095D01*
X134913809Y-111386952D02*
X134818571Y-111339333D01*
X134770952Y-111291714D01*
X134723333Y-111196476D01*
X134723333Y-111148857D01*
X134770952Y-111053619D01*
X134818571Y-111006000D01*
X134913809Y-110958381D01*
X135104286Y-110958381D01*
X135199524Y-111006000D01*
X135247143Y-111053619D01*
X135294762Y-111148857D01*
X135294762Y-111196476D01*
X135247143Y-111291714D01*
X135199524Y-111339333D01*
X135104286Y-111386952D01*
X134913809Y-111386952D01*
X134818571Y-111434571D01*
X134770952Y-111482190D01*
X134723333Y-111577429D01*
X134723333Y-111767905D01*
X134770952Y-111863143D01*
X134818571Y-111910762D01*
X134913809Y-111958381D01*
X135104286Y-111958381D01*
X135199524Y-111910762D01*
X135247143Y-111863143D01*
X135294762Y-111767905D01*
X135294762Y-111577429D01*
X135247143Y-111482190D01*
X135199524Y-111434571D01*
X135104286Y-111386952D01*
X135723333Y-111291714D02*
X135723333Y-112291714D01*
X135723333Y-111339333D02*
X135818571Y-111291714D01*
X136009048Y-111291714D01*
X136104286Y-111339333D01*
X136151905Y-111386952D01*
X136199524Y-111482190D01*
X136199524Y-111767905D01*
X136151905Y-111863143D01*
X136104286Y-111910762D01*
X136009048Y-111958381D01*
X135818571Y-111958381D01*
X135723333Y-111910762D01*
X136961429Y-111434571D02*
X136628095Y-111434571D01*
X136628095Y-111958381D02*
X136628095Y-110958381D01*
X137104286Y-110958381D01*
X137437619Y-111053619D02*
X137485238Y-111006000D01*
X137580476Y-110958381D01*
X137818572Y-110958381D01*
X137913810Y-111006000D01*
X137961429Y-111053619D01*
X138009048Y-111148857D01*
X138009048Y-111244095D01*
X137961429Y-111386952D01*
X137390000Y-111958381D01*
X138009048Y-111958381D01*
X69552048Y-96306571D02*
X69694905Y-96354190D01*
X69742524Y-96401810D01*
X69790143Y-96497048D01*
X69790143Y-96639905D01*
X69742524Y-96735143D01*
X69694905Y-96782762D01*
X69599667Y-96830381D01*
X69218714Y-96830381D01*
X69218714Y-95830381D01*
X69552048Y-95830381D01*
X69647286Y-95878000D01*
X69694905Y-95925619D01*
X69742524Y-96020857D01*
X69742524Y-96116095D01*
X69694905Y-96211333D01*
X69647286Y-96258952D01*
X69552048Y-96306571D01*
X69218714Y-96306571D01*
X70123476Y-95830381D02*
X70790143Y-95830381D01*
X70123476Y-96830381D01*
X70790143Y-96830381D01*
X71694905Y-96830381D02*
X71123476Y-96830381D01*
X71409190Y-96830381D02*
X71409190Y-95830381D01*
X71313952Y-95973238D01*
X71218714Y-96068476D01*
X71123476Y-96116095D01*
X66802048Y-101649429D02*
X67563953Y-101649429D01*
X67183001Y-102030381D02*
X67183001Y-101268476D01*
X121769143Y-74969666D02*
X121816762Y-75017285D01*
X121864381Y-75160142D01*
X121864381Y-75255380D01*
X121816762Y-75398238D01*
X121721524Y-75493476D01*
X121626286Y-75541095D01*
X121435810Y-75588714D01*
X121292952Y-75588714D01*
X121102476Y-75541095D01*
X121007238Y-75493476D01*
X120912000Y-75398238D01*
X120864381Y-75255380D01*
X120864381Y-75160142D01*
X120912000Y-75017285D01*
X120959619Y-74969666D01*
X121864381Y-74493476D02*
X121864381Y-74303000D01*
X121816762Y-74207761D01*
X121769143Y-74160142D01*
X121626286Y-74064904D01*
X121435810Y-74017285D01*
X121054857Y-74017285D01*
X120959619Y-74064904D01*
X120912000Y-74112523D01*
X120864381Y-74207761D01*
X120864381Y-74398238D01*
X120912000Y-74493476D01*
X120959619Y-74541095D01*
X121054857Y-74588714D01*
X121292952Y-74588714D01*
X121388190Y-74541095D01*
X121435810Y-74493476D01*
X121483429Y-74398238D01*
X121483429Y-74207761D01*
X121435810Y-74112523D01*
X121388190Y-74064904D01*
X121292952Y-74017285D01*
X77716143Y-109323143D02*
X77668524Y-109370762D01*
X77525667Y-109418381D01*
X77430429Y-109418381D01*
X77287571Y-109370762D01*
X77192333Y-109275524D01*
X77144714Y-109180286D01*
X77097095Y-108989810D01*
X77097095Y-108846952D01*
X77144714Y-108656476D01*
X77192333Y-108561238D01*
X77287571Y-108466000D01*
X77430429Y-108418381D01*
X77525667Y-108418381D01*
X77668524Y-108466000D01*
X77716143Y-108513619D01*
X78668524Y-109418381D02*
X78097095Y-109418381D01*
X78382809Y-109418381D02*
X78382809Y-108418381D01*
X78287571Y-108561238D01*
X78192333Y-108656476D01*
X78097095Y-108704095D01*
X79620905Y-109418381D02*
X79049476Y-109418381D01*
X79335190Y-109418381D02*
X79335190Y-108418381D01*
X79239952Y-108561238D01*
X79144714Y-108656476D01*
X79049476Y-108704095D01*
X110863143Y-101096143D02*
X110815524Y-101143762D01*
X110672667Y-101191381D01*
X110577429Y-101191381D01*
X110434571Y-101143762D01*
X110339333Y-101048524D01*
X110291714Y-100953286D01*
X110244095Y-100762810D01*
X110244095Y-100619952D01*
X110291714Y-100429476D01*
X110339333Y-100334238D01*
X110434571Y-100239000D01*
X110577429Y-100191381D01*
X110672667Y-100191381D01*
X110815524Y-100239000D01*
X110863143Y-100286619D01*
X111815524Y-101191381D02*
X111244095Y-101191381D01*
X111529809Y-101191381D02*
X111529809Y-100191381D01*
X111434571Y-100334238D01*
X111339333Y-100429476D01*
X111244095Y-100477095D01*
X112148857Y-100191381D02*
X112767905Y-100191381D01*
X112434571Y-100572333D01*
X112577429Y-100572333D01*
X112672667Y-100619952D01*
X112720286Y-100667571D01*
X112767905Y-100762810D01*
X112767905Y-101000905D01*
X112720286Y-101096143D01*
X112672667Y-101143762D01*
X112577429Y-101191381D01*
X112291714Y-101191381D01*
X112196476Y-101143762D01*
X112148857Y-101096143D01*
X181106143Y-46362857D02*
X181153762Y-46410476D01*
X181201381Y-46553333D01*
X181201381Y-46648571D01*
X181153762Y-46791429D01*
X181058524Y-46886667D01*
X180963286Y-46934286D01*
X180772810Y-46981905D01*
X180629952Y-46981905D01*
X180439476Y-46934286D01*
X180344238Y-46886667D01*
X180249000Y-46791429D01*
X180201381Y-46648571D01*
X180201381Y-46553333D01*
X180249000Y-46410476D01*
X180296619Y-46362857D01*
X181201381Y-45410476D02*
X181201381Y-45981905D01*
X181201381Y-45696191D02*
X180201381Y-45696191D01*
X180344238Y-45791429D01*
X180439476Y-45886667D01*
X180487095Y-45981905D01*
X180534714Y-44553333D02*
X181201381Y-44553333D01*
X180153762Y-44791429D02*
X180868048Y-45029524D01*
X180868048Y-44410476D01*
X185043143Y-46362857D02*
X185090762Y-46410476D01*
X185138381Y-46553333D01*
X185138381Y-46648571D01*
X185090762Y-46791429D01*
X184995524Y-46886667D01*
X184900286Y-46934286D01*
X184709810Y-46981905D01*
X184566952Y-46981905D01*
X184376476Y-46934286D01*
X184281238Y-46886667D01*
X184186000Y-46791429D01*
X184138381Y-46648571D01*
X184138381Y-46553333D01*
X184186000Y-46410476D01*
X184233619Y-46362857D01*
X185138381Y-45410476D02*
X185138381Y-45981905D01*
X185138381Y-45696191D02*
X184138381Y-45696191D01*
X184281238Y-45791429D01*
X184376476Y-45886667D01*
X184424095Y-45981905D01*
X184138381Y-44505714D02*
X184138381Y-44981905D01*
X184614571Y-45029524D01*
X184566952Y-44981905D01*
X184519333Y-44886667D01*
X184519333Y-44648571D01*
X184566952Y-44553333D01*
X184614571Y-44505714D01*
X184709810Y-44458095D01*
X184947905Y-44458095D01*
X185043143Y-44505714D01*
X185090762Y-44553333D01*
X185138381Y-44648571D01*
X185138381Y-44886667D01*
X185090762Y-44981905D01*
X185043143Y-45029524D01*
X177296143Y-46489857D02*
X177343762Y-46537476D01*
X177391381Y-46680333D01*
X177391381Y-46775571D01*
X177343762Y-46918429D01*
X177248524Y-47013667D01*
X177153286Y-47061286D01*
X176962810Y-47108905D01*
X176819952Y-47108905D01*
X176629476Y-47061286D01*
X176534238Y-47013667D01*
X176439000Y-46918429D01*
X176391381Y-46775571D01*
X176391381Y-46680333D01*
X176439000Y-46537476D01*
X176486619Y-46489857D01*
X177391381Y-45537476D02*
X177391381Y-46108905D01*
X177391381Y-45823191D02*
X176391381Y-45823191D01*
X176534238Y-45918429D01*
X176629476Y-46013667D01*
X176677095Y-46108905D01*
X176391381Y-44680333D02*
X176391381Y-44870810D01*
X176439000Y-44966048D01*
X176486619Y-45013667D01*
X176629476Y-45108905D01*
X176819952Y-45156524D01*
X177200905Y-45156524D01*
X177296143Y-45108905D01*
X177343762Y-45061286D01*
X177391381Y-44966048D01*
X177391381Y-44775571D01*
X177343762Y-44680333D01*
X177296143Y-44632714D01*
X177200905Y-44585095D01*
X176962810Y-44585095D01*
X176867571Y-44632714D01*
X176819952Y-44680333D01*
X176772333Y-44775571D01*
X176772333Y-44966048D01*
X176819952Y-45061286D01*
X176867571Y-45108905D01*
X176962810Y-45156524D01*
X124960143Y-71858143D02*
X124912524Y-71905762D01*
X124769667Y-71953381D01*
X124674429Y-71953381D01*
X124531571Y-71905762D01*
X124436333Y-71810524D01*
X124388714Y-71715286D01*
X124341095Y-71524810D01*
X124341095Y-71381952D01*
X124388714Y-71191476D01*
X124436333Y-71096238D01*
X124531571Y-71001000D01*
X124674429Y-70953381D01*
X124769667Y-70953381D01*
X124912524Y-71001000D01*
X124960143Y-71048619D01*
X125912524Y-71953381D02*
X125341095Y-71953381D01*
X125626809Y-71953381D02*
X125626809Y-70953381D01*
X125531571Y-71096238D01*
X125436333Y-71191476D01*
X125341095Y-71239095D01*
X126245857Y-70953381D02*
X126912524Y-70953381D01*
X126483952Y-71953381D01*
X166623381Y-102592095D02*
X165623381Y-102592095D01*
X165623381Y-102354000D01*
X165671000Y-102211142D01*
X165766238Y-102115904D01*
X165861476Y-102068285D01*
X166051952Y-102020666D01*
X166194810Y-102020666D01*
X166385286Y-102068285D01*
X166480524Y-102115904D01*
X166575762Y-102211142D01*
X166623381Y-102354000D01*
X166623381Y-102592095D01*
X165956714Y-101163523D02*
X166623381Y-101163523D01*
X165575762Y-101401619D02*
X166290048Y-101639714D01*
X166290048Y-101020666D01*
X175005381Y-102465095D02*
X174005381Y-102465095D01*
X174005381Y-102227000D01*
X174053000Y-102084142D01*
X174148238Y-101988904D01*
X174243476Y-101941285D01*
X174433952Y-101893666D01*
X174576810Y-101893666D01*
X174767286Y-101941285D01*
X174862524Y-101988904D01*
X174957762Y-102084142D01*
X175005381Y-102227000D01*
X175005381Y-102465095D01*
X174005381Y-100988904D02*
X174005381Y-101465095D01*
X174481571Y-101512714D01*
X174433952Y-101465095D01*
X174386333Y-101369857D01*
X174386333Y-101131761D01*
X174433952Y-101036523D01*
X174481571Y-100988904D01*
X174576810Y-100941285D01*
X174814905Y-100941285D01*
X174910143Y-100988904D01*
X174957762Y-101036523D01*
X175005381Y-101131761D01*
X175005381Y-101369857D01*
X174957762Y-101465095D01*
X174910143Y-101512714D01*
X183768381Y-102338095D02*
X182768381Y-102338095D01*
X182768381Y-102100000D01*
X182816000Y-101957142D01*
X182911238Y-101861904D01*
X183006476Y-101814285D01*
X183196952Y-101766666D01*
X183339810Y-101766666D01*
X183530286Y-101814285D01*
X183625524Y-101861904D01*
X183720762Y-101957142D01*
X183768381Y-102100000D01*
X183768381Y-102338095D01*
X182768381Y-100909523D02*
X182768381Y-101100000D01*
X182816000Y-101195238D01*
X182863619Y-101242857D01*
X183006476Y-101338095D01*
X183196952Y-101385714D01*
X183577905Y-101385714D01*
X183673143Y-101338095D01*
X183720762Y-101290476D01*
X183768381Y-101195238D01*
X183768381Y-101004761D01*
X183720762Y-100909523D01*
X183673143Y-100861904D01*
X183577905Y-100814285D01*
X183339810Y-100814285D01*
X183244571Y-100861904D01*
X183196952Y-100909523D01*
X183149333Y-101004761D01*
X183149333Y-101195238D01*
X183196952Y-101290476D01*
X183244571Y-101338095D01*
X183339810Y-101385714D01*
X192150381Y-102211095D02*
X191150381Y-102211095D01*
X191150381Y-101973000D01*
X191198000Y-101830142D01*
X191293238Y-101734904D01*
X191388476Y-101687285D01*
X191578952Y-101639666D01*
X191721810Y-101639666D01*
X191912286Y-101687285D01*
X192007524Y-101734904D01*
X192102762Y-101830142D01*
X192150381Y-101973000D01*
X192150381Y-102211095D01*
X191150381Y-101306333D02*
X191150381Y-100639666D01*
X192150381Y-101068238D01*
X183030905Y-50010381D02*
X183030905Y-49010381D01*
X183269000Y-49010381D01*
X183411858Y-49058000D01*
X183507096Y-49153238D01*
X183554715Y-49248476D01*
X183602334Y-49438952D01*
X183602334Y-49581810D01*
X183554715Y-49772286D01*
X183507096Y-49867524D01*
X183411858Y-49962762D01*
X183269000Y-50010381D01*
X183030905Y-50010381D01*
X184173762Y-49438952D02*
X184078524Y-49391333D01*
X184030905Y-49343714D01*
X183983286Y-49248476D01*
X183983286Y-49200857D01*
X184030905Y-49105619D01*
X184078524Y-49058000D01*
X184173762Y-49010381D01*
X184364239Y-49010381D01*
X184459477Y-49058000D01*
X184507096Y-49105619D01*
X184554715Y-49200857D01*
X184554715Y-49248476D01*
X184507096Y-49343714D01*
X184459477Y-49391333D01*
X184364239Y-49438952D01*
X184173762Y-49438952D01*
X184078524Y-49486571D01*
X184030905Y-49534190D01*
X183983286Y-49629429D01*
X183983286Y-49819905D01*
X184030905Y-49915143D01*
X184078524Y-49962762D01*
X184173762Y-50010381D01*
X184364239Y-50010381D01*
X184459477Y-49962762D01*
X184507096Y-49915143D01*
X184554715Y-49819905D01*
X184554715Y-49629429D01*
X184507096Y-49534190D01*
X184459477Y-49486571D01*
X184364239Y-49438952D01*
X192702381Y-48363095D02*
X191702381Y-48363095D01*
X191702381Y-48125000D01*
X191750000Y-47982142D01*
X191845238Y-47886904D01*
X191940476Y-47839285D01*
X192130952Y-47791666D01*
X192273810Y-47791666D01*
X192464286Y-47839285D01*
X192559524Y-47886904D01*
X192654762Y-47982142D01*
X192702381Y-48125000D01*
X192702381Y-48363095D01*
X192702381Y-47315476D02*
X192702381Y-47125000D01*
X192654762Y-47029761D01*
X192607143Y-46982142D01*
X192464286Y-46886904D01*
X192273810Y-46839285D01*
X191892857Y-46839285D01*
X191797619Y-46886904D01*
X191750000Y-46934523D01*
X191702381Y-47029761D01*
X191702381Y-47220238D01*
X191750000Y-47315476D01*
X191797619Y-47363095D01*
X191892857Y-47410714D01*
X192130952Y-47410714D01*
X192226190Y-47363095D01*
X192273810Y-47315476D01*
X192321429Y-47220238D01*
X192321429Y-47029761D01*
X192273810Y-46934523D01*
X192226190Y-46886904D01*
X192130952Y-46839285D01*
X64476571Y-50347571D02*
X64809905Y-50347571D01*
X64952762Y-50871381D02*
X64476571Y-50871381D01*
X64476571Y-49871381D01*
X64952762Y-49871381D01*
X65381333Y-50871381D02*
X65381333Y-50204714D01*
X65381333Y-50395190D02*
X65428952Y-50299952D01*
X65476571Y-50252333D01*
X65571809Y-50204714D01*
X65667048Y-50204714D01*
X66000381Y-50871381D02*
X66000381Y-50204714D01*
X66000381Y-50395190D02*
X66048000Y-50299952D01*
X66095619Y-50252333D01*
X66190857Y-50204714D01*
X66286096Y-50204714D01*
X66762286Y-50871381D02*
X66667048Y-50823762D01*
X66619429Y-50776143D01*
X66571810Y-50680905D01*
X66571810Y-50395190D01*
X66619429Y-50299952D01*
X66667048Y-50252333D01*
X66762286Y-50204714D01*
X66905144Y-50204714D01*
X67000382Y-50252333D01*
X67048001Y-50299952D01*
X67095620Y-50395190D01*
X67095620Y-50680905D01*
X67048001Y-50776143D01*
X67000382Y-50823762D01*
X66905144Y-50871381D01*
X66762286Y-50871381D01*
X67524191Y-50871381D02*
X67524191Y-50204714D01*
X67524191Y-50395190D02*
X67571810Y-50299952D01*
X67619429Y-50252333D01*
X67714667Y-50204714D01*
X67809906Y-50204714D01*
X68667049Y-50871381D02*
X68095620Y-50871381D01*
X68381334Y-50871381D02*
X68381334Y-49871381D01*
X68286096Y-50014238D01*
X68190858Y-50109476D01*
X68095620Y-50157095D01*
X175711667Y-65873571D02*
X175378333Y-65873571D01*
X175378333Y-66397381D02*
X175378333Y-65397381D01*
X175854524Y-65397381D01*
X176187857Y-65492619D02*
X176235476Y-65445000D01*
X176330714Y-65397381D01*
X176568810Y-65397381D01*
X176664048Y-65445000D01*
X176711667Y-65492619D01*
X176759286Y-65587857D01*
X176759286Y-65683095D01*
X176711667Y-65825952D01*
X176140238Y-66397381D01*
X176759286Y-66397381D01*
X62436856Y-46553381D02*
X62436856Y-45553381D01*
X62436856Y-46029571D02*
X63008285Y-46029571D01*
X63008285Y-46553381D02*
X63008285Y-45553381D01*
X63865428Y-46505762D02*
X63770190Y-46553381D01*
X63579713Y-46553381D01*
X63484475Y-46505762D01*
X63436856Y-46410524D01*
X63436856Y-46029571D01*
X63484475Y-45934333D01*
X63579713Y-45886714D01*
X63770190Y-45886714D01*
X63865428Y-45934333D01*
X63913047Y-46029571D01*
X63913047Y-46124810D01*
X63436856Y-46220048D01*
X64770190Y-46553381D02*
X64770190Y-46029571D01*
X64722571Y-45934333D01*
X64627333Y-45886714D01*
X64436856Y-45886714D01*
X64341618Y-45934333D01*
X64770190Y-46505762D02*
X64674952Y-46553381D01*
X64436856Y-46553381D01*
X64341618Y-46505762D01*
X64293999Y-46410524D01*
X64293999Y-46315286D01*
X64341618Y-46220048D01*
X64436856Y-46172429D01*
X64674952Y-46172429D01*
X64770190Y-46124810D01*
X65246380Y-46553381D02*
X65246380Y-45886714D01*
X65246380Y-46077190D02*
X65293999Y-45981952D01*
X65341618Y-45934333D01*
X65436856Y-45886714D01*
X65532095Y-45886714D01*
X65722571Y-45886714D02*
X66103523Y-45886714D01*
X65865428Y-45553381D02*
X65865428Y-46410524D01*
X65913047Y-46505762D01*
X66008285Y-46553381D01*
X66103523Y-46553381D01*
X66436857Y-46553381D02*
X66436857Y-45553381D01*
X66436857Y-45934333D02*
X66532095Y-45886714D01*
X66722572Y-45886714D01*
X66817810Y-45934333D01*
X66865429Y-45981952D01*
X66913048Y-46077190D01*
X66913048Y-46362905D01*
X66865429Y-46458143D01*
X66817810Y-46505762D01*
X66722572Y-46553381D01*
X66532095Y-46553381D01*
X66436857Y-46505762D01*
X67722572Y-46505762D02*
X67627334Y-46553381D01*
X67436857Y-46553381D01*
X67341619Y-46505762D01*
X67294000Y-46410524D01*
X67294000Y-46029571D01*
X67341619Y-45934333D01*
X67436857Y-45886714D01*
X67627334Y-45886714D01*
X67722572Y-45934333D01*
X67770191Y-46029571D01*
X67770191Y-46124810D01*
X67294000Y-46220048D01*
X68627334Y-46553381D02*
X68627334Y-46029571D01*
X68579715Y-45934333D01*
X68484477Y-45886714D01*
X68294000Y-45886714D01*
X68198762Y-45934333D01*
X68627334Y-46505762D02*
X68532096Y-46553381D01*
X68294000Y-46553381D01*
X68198762Y-46505762D01*
X68151143Y-46410524D01*
X68151143Y-46315286D01*
X68198762Y-46220048D01*
X68294000Y-46172429D01*
X68532096Y-46172429D01*
X68627334Y-46124810D01*
X68960667Y-45886714D02*
X69341619Y-45886714D01*
X69103524Y-45553381D02*
X69103524Y-46410524D01*
X69151143Y-46505762D01*
X69246381Y-46553381D01*
X69341619Y-46553381D01*
X70198763Y-46553381D02*
X69627334Y-46553381D01*
X69913048Y-46553381D02*
X69913048Y-45553381D01*
X69817810Y-45696238D01*
X69722572Y-45791476D01*
X69627334Y-45839095D01*
X66087667Y-72306381D02*
X66087667Y-73020667D01*
X66040047Y-73163524D01*
X65944809Y-73258762D01*
X65801952Y-73306381D01*
X65706714Y-73306381D01*
X66992429Y-72639714D02*
X66992429Y-73306381D01*
X66754333Y-72258762D02*
X66516238Y-72973048D01*
X67135286Y-72973048D01*
X202356667Y-60668381D02*
X202356667Y-61382667D01*
X202309047Y-61525524D01*
X202213809Y-61620762D01*
X202070952Y-61668381D01*
X201975714Y-61668381D01*
X202880476Y-61668381D02*
X203070952Y-61668381D01*
X203166191Y-61620762D01*
X203213810Y-61573143D01*
X203309048Y-61430286D01*
X203356667Y-61239810D01*
X203356667Y-60858857D01*
X203309048Y-60763619D01*
X203261429Y-60716000D01*
X203166191Y-60668381D01*
X202975714Y-60668381D01*
X202880476Y-60716000D01*
X202832857Y-60763619D01*
X202785238Y-60858857D01*
X202785238Y-61096952D01*
X202832857Y-61192190D01*
X202880476Y-61239810D01*
X202975714Y-61287429D01*
X203166191Y-61287429D01*
X203261429Y-61239810D01*
X203309048Y-61192190D01*
X203356667Y-61096952D01*
X88435381Y-132000523D02*
X89149667Y-132000523D01*
X89292524Y-132048143D01*
X89387762Y-132143381D01*
X89435381Y-132286238D01*
X89435381Y-132381476D01*
X89435381Y-131000523D02*
X89435381Y-131571952D01*
X89435381Y-131286238D02*
X88435381Y-131286238D01*
X88578238Y-131381476D01*
X88673476Y-131476714D01*
X88721095Y-131571952D01*
X88435381Y-130095761D02*
X88435381Y-130571952D01*
X88911571Y-130619571D01*
X88863952Y-130571952D01*
X88816333Y-130476714D01*
X88816333Y-130238618D01*
X88863952Y-130143380D01*
X88911571Y-130095761D01*
X89006810Y-130048142D01*
X89244905Y-130048142D01*
X89340143Y-130095761D01*
X89387762Y-130143380D01*
X89435381Y-130238618D01*
X89435381Y-130476714D01*
X89387762Y-130571952D01*
X89340143Y-130619571D01*
X134409381Y-41671523D02*
X135123667Y-41671523D01*
X135266524Y-41719143D01*
X135361762Y-41814381D01*
X135409381Y-41957238D01*
X135409381Y-42052476D01*
X135409381Y-40671523D02*
X135409381Y-41242952D01*
X135409381Y-40957238D02*
X134409381Y-40957238D01*
X134552238Y-41052476D01*
X134647476Y-41147714D01*
X134695095Y-41242952D01*
X134409381Y-39814380D02*
X134409381Y-40004857D01*
X134457000Y-40100095D01*
X134504619Y-40147714D01*
X134647476Y-40242952D01*
X134837952Y-40290571D01*
X135218905Y-40290571D01*
X135314143Y-40242952D01*
X135361762Y-40195333D01*
X135409381Y-40100095D01*
X135409381Y-39909618D01*
X135361762Y-39814380D01*
X135314143Y-39766761D01*
X135218905Y-39719142D01*
X134980810Y-39719142D01*
X134885571Y-39766761D01*
X134837952Y-39814380D01*
X134790333Y-39909618D01*
X134790333Y-40100095D01*
X134837952Y-40195333D01*
X134885571Y-40242952D01*
X134980810Y-40290571D01*
X75009477Y-122063381D02*
X75009477Y-122777667D01*
X74961857Y-122920524D01*
X74866619Y-123015762D01*
X74723762Y-123063381D01*
X74628524Y-123063381D01*
X76009477Y-123063381D02*
X75438048Y-123063381D01*
X75723762Y-123063381D02*
X75723762Y-122063381D01*
X75628524Y-122206238D01*
X75533286Y-122301476D01*
X75438048Y-122349095D01*
X76485667Y-123063381D02*
X76676143Y-123063381D01*
X76771382Y-123015762D01*
X76819001Y-122968143D01*
X76914239Y-122825286D01*
X76961858Y-122634810D01*
X76961858Y-122253857D01*
X76914239Y-122158619D01*
X76866620Y-122111000D01*
X76771382Y-122063381D01*
X76580905Y-122063381D01*
X76485667Y-122111000D01*
X76438048Y-122158619D01*
X76390429Y-122253857D01*
X76390429Y-122491952D01*
X76438048Y-122587190D01*
X76485667Y-122634810D01*
X76580905Y-122682429D01*
X76771382Y-122682429D01*
X76866620Y-122634810D01*
X76914239Y-122587190D01*
X76961858Y-122491952D01*
X120729477Y-122063381D02*
X120729477Y-122777667D01*
X120681857Y-122920524D01*
X120586619Y-123015762D01*
X120443762Y-123063381D01*
X120348524Y-123063381D01*
X121158048Y-122158619D02*
X121205667Y-122111000D01*
X121300905Y-122063381D01*
X121539001Y-122063381D01*
X121634239Y-122111000D01*
X121681858Y-122158619D01*
X121729477Y-122253857D01*
X121729477Y-122349095D01*
X121681858Y-122491952D01*
X121110429Y-123063381D01*
X121729477Y-123063381D01*
X122062810Y-122063381D02*
X122681858Y-122063381D01*
X122348524Y-122444333D01*
X122491382Y-122444333D01*
X122586620Y-122491952D01*
X122634239Y-122539571D01*
X122681858Y-122634810D01*
X122681858Y-122872905D01*
X122634239Y-122968143D01*
X122586620Y-123015762D01*
X122491382Y-123063381D01*
X122205667Y-123063381D01*
X122110429Y-123015762D01*
X122062810Y-122968143D01*
X65611477Y-125508381D02*
X65611477Y-126222667D01*
X65563857Y-126365524D01*
X65468619Y-126460762D01*
X65325762Y-126508381D01*
X65230524Y-126508381D01*
X66040048Y-125603619D02*
X66087667Y-125556000D01*
X66182905Y-125508381D01*
X66421001Y-125508381D01*
X66516239Y-125556000D01*
X66563858Y-125603619D01*
X66611477Y-125698857D01*
X66611477Y-125794095D01*
X66563858Y-125936952D01*
X65992429Y-126508381D01*
X66611477Y-126508381D01*
X66944810Y-125508381D02*
X67611477Y-125508381D01*
X67182905Y-126508381D01*
X75390477Y-63135381D02*
X75390477Y-63849667D01*
X75342857Y-63992524D01*
X75247619Y-64087762D01*
X75104762Y-64135381D01*
X75009524Y-64135381D01*
X75819048Y-63230619D02*
X75866667Y-63183000D01*
X75961905Y-63135381D01*
X76200001Y-63135381D01*
X76295239Y-63183000D01*
X76342858Y-63230619D01*
X76390477Y-63325857D01*
X76390477Y-63421095D01*
X76342858Y-63563952D01*
X75771429Y-64135381D01*
X76390477Y-64135381D01*
X76961905Y-63563952D02*
X76866667Y-63516333D01*
X76819048Y-63468714D01*
X76771429Y-63373476D01*
X76771429Y-63325857D01*
X76819048Y-63230619D01*
X76866667Y-63183000D01*
X76961905Y-63135381D01*
X77152382Y-63135381D01*
X77247620Y-63183000D01*
X77295239Y-63230619D01*
X77342858Y-63325857D01*
X77342858Y-63373476D01*
X77295239Y-63468714D01*
X77247620Y-63516333D01*
X77152382Y-63563952D01*
X76961905Y-63563952D01*
X76866667Y-63611571D01*
X76819048Y-63659190D01*
X76771429Y-63754429D01*
X76771429Y-63944905D01*
X76819048Y-64040143D01*
X76866667Y-64087762D01*
X76961905Y-64135381D01*
X77152382Y-64135381D01*
X77247620Y-64087762D01*
X77295239Y-64040143D01*
X77342858Y-63944905D01*
X77342858Y-63754429D01*
X77295239Y-63659190D01*
X77247620Y-63611571D01*
X77152382Y-63563952D01*
X120729477Y-63135381D02*
X120729477Y-63849667D01*
X120681857Y-63992524D01*
X120586619Y-64087762D01*
X120443762Y-64135381D01*
X120348524Y-64135381D01*
X121158048Y-63230619D02*
X121205667Y-63183000D01*
X121300905Y-63135381D01*
X121539001Y-63135381D01*
X121634239Y-63183000D01*
X121681858Y-63230619D01*
X121729477Y-63325857D01*
X121729477Y-63421095D01*
X121681858Y-63563952D01*
X121110429Y-64135381D01*
X121729477Y-64135381D01*
X122205667Y-64135381D02*
X122396143Y-64135381D01*
X122491382Y-64087762D01*
X122539001Y-64040143D01*
X122634239Y-63897286D01*
X122681858Y-63706810D01*
X122681858Y-63325857D01*
X122634239Y-63230619D01*
X122586620Y-63183000D01*
X122491382Y-63135381D01*
X122300905Y-63135381D01*
X122205667Y-63183000D01*
X122158048Y-63230619D01*
X122110429Y-63325857D01*
X122110429Y-63563952D01*
X122158048Y-63659190D01*
X122205667Y-63706810D01*
X122300905Y-63754429D01*
X122491382Y-63754429D01*
X122586620Y-63706810D01*
X122634239Y-63659190D01*
X122681858Y-63563952D01*
X130889477Y-68310381D02*
X130889477Y-69024667D01*
X130841857Y-69167524D01*
X130746619Y-69262762D01*
X130603762Y-69310381D01*
X130508524Y-69310381D01*
X131270429Y-68310381D02*
X131889477Y-68310381D01*
X131556143Y-68691333D01*
X131699001Y-68691333D01*
X131794239Y-68738952D01*
X131841858Y-68786571D01*
X131889477Y-68881810D01*
X131889477Y-69119905D01*
X131841858Y-69215143D01*
X131794239Y-69262762D01*
X131699001Y-69310381D01*
X131413286Y-69310381D01*
X131318048Y-69262762D01*
X131270429Y-69215143D01*
X132508524Y-68310381D02*
X132603763Y-68310381D01*
X132699001Y-68358000D01*
X132746620Y-68405619D01*
X132794239Y-68500857D01*
X132841858Y-68691333D01*
X132841858Y-68929429D01*
X132794239Y-69119905D01*
X132746620Y-69215143D01*
X132699001Y-69262762D01*
X132603763Y-69310381D01*
X132508524Y-69310381D01*
X132413286Y-69262762D01*
X132365667Y-69215143D01*
X132318048Y-69119905D01*
X132270429Y-68929429D01*
X132270429Y-68691333D01*
X132318048Y-68500857D01*
X132365667Y-68405619D01*
X132413286Y-68358000D01*
X132508524Y-68310381D01*
X205946477Y-68310381D02*
X205946477Y-69024667D01*
X205898857Y-69167524D01*
X205803619Y-69262762D01*
X205660762Y-69310381D01*
X205565524Y-69310381D01*
X206327429Y-68310381D02*
X206946477Y-68310381D01*
X206613143Y-68691333D01*
X206756001Y-68691333D01*
X206851239Y-68738952D01*
X206898858Y-68786571D01*
X206946477Y-68881810D01*
X206946477Y-69119905D01*
X206898858Y-69215143D01*
X206851239Y-69262762D01*
X206756001Y-69310381D01*
X206470286Y-69310381D01*
X206375048Y-69262762D01*
X206327429Y-69215143D01*
X207898858Y-69310381D02*
X207327429Y-69310381D01*
X207613143Y-69310381D02*
X207613143Y-68310381D01*
X207517905Y-68453238D01*
X207422667Y-68548476D01*
X207327429Y-68596095D01*
X186944334Y-66075381D02*
X186468143Y-66075381D01*
X186468143Y-65075381D01*
X187230048Y-65170619D02*
X187277667Y-65123000D01*
X187372905Y-65075381D01*
X187611001Y-65075381D01*
X187706239Y-65123000D01*
X187753858Y-65170619D01*
X187801477Y-65265857D01*
X187801477Y-65361095D01*
X187753858Y-65503952D01*
X187182429Y-66075381D01*
X187801477Y-66075381D01*
X172037619Y-48482238D02*
X171990000Y-48577476D01*
X171894762Y-48672714D01*
X171751905Y-48815571D01*
X171704286Y-48910810D01*
X171704286Y-49006048D01*
X171942381Y-48958429D02*
X171894762Y-49053667D01*
X171799524Y-49148905D01*
X171609048Y-49196524D01*
X171275714Y-49196524D01*
X171085238Y-49148905D01*
X170990000Y-49053667D01*
X170942381Y-48958429D01*
X170942381Y-48767952D01*
X170990000Y-48672714D01*
X171085238Y-48577476D01*
X171275714Y-48529857D01*
X171609048Y-48529857D01*
X171799524Y-48577476D01*
X171894762Y-48672714D01*
X171942381Y-48767952D01*
X171942381Y-48958429D01*
X171942381Y-47577476D02*
X171942381Y-48148905D01*
X171942381Y-47863191D02*
X170942381Y-47863191D01*
X171085238Y-47958429D01*
X171180476Y-48053667D01*
X171228095Y-48148905D01*
X135762619Y-56991238D02*
X135715000Y-57086476D01*
X135619762Y-57181714D01*
X135476905Y-57324571D01*
X135429286Y-57419810D01*
X135429286Y-57515048D01*
X135667381Y-57467429D02*
X135619762Y-57562667D01*
X135524524Y-57657905D01*
X135334048Y-57705524D01*
X135000714Y-57705524D01*
X134810238Y-57657905D01*
X134715000Y-57562667D01*
X134667381Y-57467429D01*
X134667381Y-57276952D01*
X134715000Y-57181714D01*
X134810238Y-57086476D01*
X135000714Y-57038857D01*
X135334048Y-57038857D01*
X135524524Y-57086476D01*
X135619762Y-57181714D01*
X135667381Y-57276952D01*
X135667381Y-57467429D01*
X134762619Y-56657905D02*
X134715000Y-56610286D01*
X134667381Y-56515048D01*
X134667381Y-56276952D01*
X134715000Y-56181714D01*
X134762619Y-56134095D01*
X134857857Y-56086476D01*
X134953095Y-56086476D01*
X135095952Y-56134095D01*
X135667381Y-56705524D01*
X135667381Y-56086476D01*
X80422762Y-103631619D02*
X80327524Y-103584000D01*
X80232286Y-103488762D01*
X80089429Y-103345905D01*
X79994190Y-103298286D01*
X79898952Y-103298286D01*
X79946571Y-103536381D02*
X79851333Y-103488762D01*
X79756095Y-103393524D01*
X79708476Y-103203048D01*
X79708476Y-102869714D01*
X79756095Y-102679238D01*
X79851333Y-102584000D01*
X79946571Y-102536381D01*
X80137048Y-102536381D01*
X80232286Y-102584000D01*
X80327524Y-102679238D01*
X80375143Y-102869714D01*
X80375143Y-103203048D01*
X80327524Y-103393524D01*
X80232286Y-103488762D01*
X80137048Y-103536381D01*
X79946571Y-103536381D01*
X80708476Y-102536381D02*
X81327524Y-102536381D01*
X80994190Y-102917333D01*
X81137048Y-102917333D01*
X81232286Y-102964952D01*
X81279905Y-103012571D01*
X81327524Y-103107810D01*
X81327524Y-103345905D01*
X81279905Y-103441143D01*
X81232286Y-103488762D01*
X81137048Y-103536381D01*
X80851333Y-103536381D01*
X80756095Y-103488762D01*
X80708476Y-103441143D01*
X146891619Y-58261238D02*
X146844000Y-58356476D01*
X146748762Y-58451714D01*
X146605905Y-58594571D01*
X146558286Y-58689810D01*
X146558286Y-58785048D01*
X146796381Y-58737429D02*
X146748762Y-58832667D01*
X146653524Y-58927905D01*
X146463048Y-58975524D01*
X146129714Y-58975524D01*
X145939238Y-58927905D01*
X145844000Y-58832667D01*
X145796381Y-58737429D01*
X145796381Y-58546952D01*
X145844000Y-58451714D01*
X145939238Y-58356476D01*
X146129714Y-58308857D01*
X146463048Y-58308857D01*
X146653524Y-58356476D01*
X146748762Y-58451714D01*
X146796381Y-58546952D01*
X146796381Y-58737429D01*
X146129714Y-57451714D02*
X146796381Y-57451714D01*
X145748762Y-57689810D02*
X146463048Y-57927905D01*
X146463048Y-57308857D01*
X81621334Y-38353381D02*
X81288000Y-37877190D01*
X81049905Y-38353381D02*
X81049905Y-37353381D01*
X81430858Y-37353381D01*
X81526096Y-37401000D01*
X81573715Y-37448619D01*
X81621334Y-37543857D01*
X81621334Y-37686714D01*
X81573715Y-37781952D01*
X81526096Y-37829571D01*
X81430858Y-37877190D01*
X81049905Y-37877190D01*
X82478477Y-37686714D02*
X82478477Y-38353381D01*
X82240381Y-37305762D02*
X82002286Y-38020048D01*
X82621334Y-38020048D01*
X73620334Y-85106381D02*
X73287000Y-84630190D01*
X73048905Y-85106381D02*
X73048905Y-84106381D01*
X73429858Y-84106381D01*
X73525096Y-84154000D01*
X73572715Y-84201619D01*
X73620334Y-84296857D01*
X73620334Y-84439714D01*
X73572715Y-84534952D01*
X73525096Y-84582571D01*
X73429858Y-84630190D01*
X73048905Y-84630190D01*
X74525096Y-84106381D02*
X74048905Y-84106381D01*
X74001286Y-84582571D01*
X74048905Y-84534952D01*
X74144143Y-84487333D01*
X74382239Y-84487333D01*
X74477477Y-84534952D01*
X74525096Y-84582571D01*
X74572715Y-84677810D01*
X74572715Y-84915905D01*
X74525096Y-85011143D01*
X74477477Y-85058762D01*
X74382239Y-85106381D01*
X74144143Y-85106381D01*
X74048905Y-85058762D01*
X74001286Y-85011143D01*
X179069381Y-101766666D02*
X178593190Y-102100000D01*
X179069381Y-102338095D02*
X178069381Y-102338095D01*
X178069381Y-101957142D01*
X178117000Y-101861904D01*
X178164619Y-101814285D01*
X178259857Y-101766666D01*
X178402714Y-101766666D01*
X178497952Y-101814285D01*
X178545571Y-101861904D01*
X178593190Y-101957142D01*
X178593190Y-102338095D01*
X178069381Y-100909523D02*
X178069381Y-101100000D01*
X178117000Y-101195238D01*
X178164619Y-101242857D01*
X178307476Y-101338095D01*
X178497952Y-101385714D01*
X178878905Y-101385714D01*
X178974143Y-101338095D01*
X179021762Y-101290476D01*
X179069381Y-101195238D01*
X179069381Y-101004761D01*
X179021762Y-100909523D01*
X178974143Y-100861904D01*
X178878905Y-100814285D01*
X178640810Y-100814285D01*
X178545571Y-100861904D01*
X178497952Y-100909523D01*
X178450333Y-101004761D01*
X178450333Y-101195238D01*
X178497952Y-101290476D01*
X178545571Y-101338095D01*
X178640810Y-101385714D01*
X170814381Y-102020666D02*
X170338190Y-102354000D01*
X170814381Y-102592095D02*
X169814381Y-102592095D01*
X169814381Y-102211142D01*
X169862000Y-102115904D01*
X169909619Y-102068285D01*
X170004857Y-102020666D01*
X170147714Y-102020666D01*
X170242952Y-102068285D01*
X170290571Y-102115904D01*
X170338190Y-102211142D01*
X170338190Y-102592095D01*
X169814381Y-101687333D02*
X169814381Y-101020666D01*
X170814381Y-101449238D01*
X187705381Y-101639666D02*
X187229190Y-101973000D01*
X187705381Y-102211095D02*
X186705381Y-102211095D01*
X186705381Y-101830142D01*
X186753000Y-101734904D01*
X186800619Y-101687285D01*
X186895857Y-101639666D01*
X187038714Y-101639666D01*
X187133952Y-101687285D01*
X187181571Y-101734904D01*
X187229190Y-101830142D01*
X187229190Y-102211095D01*
X187133952Y-101068238D02*
X187086333Y-101163476D01*
X187038714Y-101211095D01*
X186943476Y-101258714D01*
X186895857Y-101258714D01*
X186800619Y-101211095D01*
X186753000Y-101163476D01*
X186705381Y-101068238D01*
X186705381Y-100877761D01*
X186753000Y-100782523D01*
X186800619Y-100734904D01*
X186895857Y-100687285D01*
X186943476Y-100687285D01*
X187038714Y-100734904D01*
X187086333Y-100782523D01*
X187133952Y-100877761D01*
X187133952Y-101068238D01*
X187181571Y-101163476D01*
X187229190Y-101211095D01*
X187324429Y-101258714D01*
X187514905Y-101258714D01*
X187610143Y-101211095D01*
X187657762Y-101163476D01*
X187705381Y-101068238D01*
X187705381Y-100877761D01*
X187657762Y-100782523D01*
X187610143Y-100734904D01*
X187514905Y-100687285D01*
X187324429Y-100687285D01*
X187229190Y-100734904D01*
X187181571Y-100782523D01*
X187133952Y-100877761D01*
X196214381Y-101639666D02*
X195738190Y-101973000D01*
X196214381Y-102211095D02*
X195214381Y-102211095D01*
X195214381Y-101830142D01*
X195262000Y-101734904D01*
X195309619Y-101687285D01*
X195404857Y-101639666D01*
X195547714Y-101639666D01*
X195642952Y-101687285D01*
X195690571Y-101734904D01*
X195738190Y-101830142D01*
X195738190Y-102211095D01*
X196214381Y-101163476D02*
X196214381Y-100973000D01*
X196166762Y-100877761D01*
X196119143Y-100830142D01*
X195976286Y-100734904D01*
X195785810Y-100687285D01*
X195404857Y-100687285D01*
X195309619Y-100734904D01*
X195262000Y-100782523D01*
X195214381Y-100877761D01*
X195214381Y-101068238D01*
X195262000Y-101163476D01*
X195309619Y-101211095D01*
X195404857Y-101258714D01*
X195642952Y-101258714D01*
X195738190Y-101211095D01*
X195785810Y-101163476D01*
X195833429Y-101068238D01*
X195833429Y-100877761D01*
X195785810Y-100782523D01*
X195738190Y-100734904D01*
X195642952Y-100687285D01*
X90749381Y-85224857D02*
X90273190Y-85558191D01*
X90749381Y-85796286D02*
X89749381Y-85796286D01*
X89749381Y-85415333D01*
X89797000Y-85320095D01*
X89844619Y-85272476D01*
X89939857Y-85224857D01*
X90082714Y-85224857D01*
X90177952Y-85272476D01*
X90225571Y-85320095D01*
X90273190Y-85415333D01*
X90273190Y-85796286D01*
X90749381Y-84272476D02*
X90749381Y-84843905D01*
X90749381Y-84558191D02*
X89749381Y-84558191D01*
X89892238Y-84653429D01*
X89987476Y-84748667D01*
X90035095Y-84843905D01*
X89749381Y-83653429D02*
X89749381Y-83558190D01*
X89797000Y-83462952D01*
X89844619Y-83415333D01*
X89939857Y-83367714D01*
X90130333Y-83320095D01*
X90368429Y-83320095D01*
X90558905Y-83367714D01*
X90654143Y-83415333D01*
X90701762Y-83462952D01*
X90749381Y-83558190D01*
X90749381Y-83653429D01*
X90701762Y-83748667D01*
X90654143Y-83796286D01*
X90558905Y-83843905D01*
X90368429Y-83891524D01*
X90130333Y-83891524D01*
X89939857Y-83843905D01*
X89844619Y-83796286D01*
X89797000Y-83748667D01*
X89749381Y-83653429D01*
X94514381Y-93479857D02*
X94038190Y-93813191D01*
X94514381Y-94051286D02*
X93514381Y-94051286D01*
X93514381Y-93670333D01*
X93562000Y-93575095D01*
X93609619Y-93527476D01*
X93704857Y-93479857D01*
X93847714Y-93479857D01*
X93942952Y-93527476D01*
X93990571Y-93575095D01*
X94038190Y-93670333D01*
X94038190Y-94051286D01*
X94514381Y-92527476D02*
X94514381Y-93098905D01*
X94514381Y-92813191D02*
X93514381Y-92813191D01*
X93657238Y-92908429D01*
X93752476Y-93003667D01*
X93800095Y-93098905D01*
X94514381Y-91575095D02*
X94514381Y-92146524D01*
X94514381Y-91860810D02*
X93514381Y-91860810D01*
X93657238Y-91956048D01*
X93752476Y-92051286D01*
X93800095Y-92146524D01*
X111776381Y-72651857D02*
X111300190Y-72985191D01*
X111776381Y-73223286D02*
X110776381Y-73223286D01*
X110776381Y-72842333D01*
X110824000Y-72747095D01*
X110871619Y-72699476D01*
X110966857Y-72651857D01*
X111109714Y-72651857D01*
X111204952Y-72699476D01*
X111252571Y-72747095D01*
X111300190Y-72842333D01*
X111300190Y-73223286D01*
X111776381Y-71699476D02*
X111776381Y-72270905D01*
X111776381Y-71985191D02*
X110776381Y-71985191D01*
X110919238Y-72080429D01*
X111014476Y-72175667D01*
X111062095Y-72270905D01*
X110871619Y-71318524D02*
X110824000Y-71270905D01*
X110776381Y-71175667D01*
X110776381Y-70937571D01*
X110824000Y-70842333D01*
X110871619Y-70794714D01*
X110966857Y-70747095D01*
X111062095Y-70747095D01*
X111204952Y-70794714D01*
X111776381Y-71366143D01*
X111776381Y-70747095D01*
X87749143Y-115713381D02*
X87415809Y-115237190D01*
X87177714Y-115713381D02*
X87177714Y-114713381D01*
X87558667Y-114713381D01*
X87653905Y-114761000D01*
X87701524Y-114808619D01*
X87749143Y-114903857D01*
X87749143Y-115046714D01*
X87701524Y-115141952D01*
X87653905Y-115189571D01*
X87558667Y-115237190D01*
X87177714Y-115237190D01*
X88701524Y-115713381D02*
X88130095Y-115713381D01*
X88415809Y-115713381D02*
X88415809Y-114713381D01*
X88320571Y-114856238D01*
X88225333Y-114951476D01*
X88130095Y-114999095D01*
X89034857Y-114713381D02*
X89653905Y-114713381D01*
X89320571Y-115094333D01*
X89463429Y-115094333D01*
X89558667Y-115141952D01*
X89606286Y-115189571D01*
X89653905Y-115284810D01*
X89653905Y-115522905D01*
X89606286Y-115618143D01*
X89558667Y-115665762D01*
X89463429Y-115713381D01*
X89177714Y-115713381D01*
X89082476Y-115665762D01*
X89034857Y-115618143D01*
X77716143Y-114299381D02*
X77382809Y-113823190D01*
X77144714Y-114299381D02*
X77144714Y-113299381D01*
X77525667Y-113299381D01*
X77620905Y-113347000D01*
X77668524Y-113394619D01*
X77716143Y-113489857D01*
X77716143Y-113632714D01*
X77668524Y-113727952D01*
X77620905Y-113775571D01*
X77525667Y-113823190D01*
X77144714Y-113823190D01*
X78668524Y-114299381D02*
X78097095Y-114299381D01*
X78382809Y-114299381D02*
X78382809Y-113299381D01*
X78287571Y-113442238D01*
X78192333Y-113537476D01*
X78097095Y-113585095D01*
X79525667Y-113632714D02*
X79525667Y-114299381D01*
X79287571Y-113251762D02*
X79049476Y-113966048D01*
X79668524Y-113966048D01*
X110863143Y-97662381D02*
X110529809Y-97186190D01*
X110291714Y-97662381D02*
X110291714Y-96662381D01*
X110672667Y-96662381D01*
X110767905Y-96710000D01*
X110815524Y-96757619D01*
X110863143Y-96852857D01*
X110863143Y-96995714D01*
X110815524Y-97090952D01*
X110767905Y-97138571D01*
X110672667Y-97186190D01*
X110291714Y-97186190D01*
X111815524Y-97662381D02*
X111244095Y-97662381D01*
X111529809Y-97662381D02*
X111529809Y-96662381D01*
X111434571Y-96805238D01*
X111339333Y-96900476D01*
X111244095Y-96948095D01*
X112720286Y-96662381D02*
X112244095Y-96662381D01*
X112196476Y-97138571D01*
X112244095Y-97090952D01*
X112339333Y-97043333D01*
X112577429Y-97043333D01*
X112672667Y-97090952D01*
X112720286Y-97138571D01*
X112767905Y-97233810D01*
X112767905Y-97471905D01*
X112720286Y-97567143D01*
X112672667Y-97614762D01*
X112577429Y-97662381D01*
X112339333Y-97662381D01*
X112244095Y-97614762D01*
X112196476Y-97567143D01*
X77843143Y-121809381D02*
X77509809Y-121333190D01*
X77271714Y-121809381D02*
X77271714Y-120809381D01*
X77652667Y-120809381D01*
X77747905Y-120857000D01*
X77795524Y-120904619D01*
X77843143Y-120999857D01*
X77843143Y-121142714D01*
X77795524Y-121237952D01*
X77747905Y-121285571D01*
X77652667Y-121333190D01*
X77271714Y-121333190D01*
X78795524Y-121809381D02*
X78224095Y-121809381D01*
X78509809Y-121809381D02*
X78509809Y-120809381D01*
X78414571Y-120952238D01*
X78319333Y-121047476D01*
X78224095Y-121095095D01*
X79652667Y-120809381D02*
X79462190Y-120809381D01*
X79366952Y-120857000D01*
X79319333Y-120904619D01*
X79224095Y-121047476D01*
X79176476Y-121237952D01*
X79176476Y-121618905D01*
X79224095Y-121714143D01*
X79271714Y-121761762D01*
X79366952Y-121809381D01*
X79557429Y-121809381D01*
X79652667Y-121761762D01*
X79700286Y-121714143D01*
X79747905Y-121618905D01*
X79747905Y-121380810D01*
X79700286Y-121285571D01*
X79652667Y-121237952D01*
X79557429Y-121190333D01*
X79366952Y-121190333D01*
X79271714Y-121237952D01*
X79224095Y-121285571D01*
X79176476Y-121380810D01*
X129913143Y-53483381D02*
X129579809Y-53007190D01*
X129341714Y-53483381D02*
X129341714Y-52483381D01*
X129722667Y-52483381D01*
X129817905Y-52531000D01*
X129865524Y-52578619D01*
X129913143Y-52673857D01*
X129913143Y-52816714D01*
X129865524Y-52911952D01*
X129817905Y-52959571D01*
X129722667Y-53007190D01*
X129341714Y-53007190D01*
X130865524Y-53483381D02*
X130294095Y-53483381D01*
X130579809Y-53483381D02*
X130579809Y-52483381D01*
X130484571Y-52626238D01*
X130389333Y-52721476D01*
X130294095Y-52769095D01*
X131198857Y-52483381D02*
X131865524Y-52483381D01*
X131436952Y-53483381D01*
X124452143Y-59573381D02*
X124118809Y-59097190D01*
X123880714Y-59573381D02*
X123880714Y-58573381D01*
X124261667Y-58573381D01*
X124356905Y-58621000D01*
X124404524Y-58668619D01*
X124452143Y-58763857D01*
X124452143Y-58906714D01*
X124404524Y-59001952D01*
X124356905Y-59049571D01*
X124261667Y-59097190D01*
X123880714Y-59097190D01*
X125404524Y-59573381D02*
X124833095Y-59573381D01*
X125118809Y-59573381D02*
X125118809Y-58573381D01*
X125023571Y-58716238D01*
X124928333Y-58811476D01*
X124833095Y-58859095D01*
X125975952Y-59001952D02*
X125880714Y-58954333D01*
X125833095Y-58906714D01*
X125785476Y-58811476D01*
X125785476Y-58763857D01*
X125833095Y-58668619D01*
X125880714Y-58621000D01*
X125975952Y-58573381D01*
X126166429Y-58573381D01*
X126261667Y-58621000D01*
X126309286Y-58668619D01*
X126356905Y-58763857D01*
X126356905Y-58811476D01*
X126309286Y-58906714D01*
X126261667Y-58954333D01*
X126166429Y-59001952D01*
X125975952Y-59001952D01*
X125880714Y-59049571D01*
X125833095Y-59097190D01*
X125785476Y-59192429D01*
X125785476Y-59382905D01*
X125833095Y-59478143D01*
X125880714Y-59525762D01*
X125975952Y-59573381D01*
X126166429Y-59573381D01*
X126261667Y-59525762D01*
X126309286Y-59478143D01*
X126356905Y-59382905D01*
X126356905Y-59192429D01*
X126309286Y-59097190D01*
X126261667Y-59049571D01*
X126166429Y-59001952D01*
X87495143Y-107386381D02*
X87161809Y-106910190D01*
X86923714Y-107386381D02*
X86923714Y-106386381D01*
X87304667Y-106386381D01*
X87399905Y-106434000D01*
X87447524Y-106481619D01*
X87495143Y-106576857D01*
X87495143Y-106719714D01*
X87447524Y-106814952D01*
X87399905Y-106862571D01*
X87304667Y-106910190D01*
X86923714Y-106910190D01*
X88447524Y-107386381D02*
X87876095Y-107386381D01*
X88161809Y-107386381D02*
X88161809Y-106386381D01*
X88066571Y-106529238D01*
X87971333Y-106624476D01*
X87876095Y-106672095D01*
X88923714Y-107386381D02*
X89114190Y-107386381D01*
X89209429Y-107338762D01*
X89257048Y-107291143D01*
X89352286Y-107148286D01*
X89399905Y-106957810D01*
X89399905Y-106576857D01*
X89352286Y-106481619D01*
X89304667Y-106434000D01*
X89209429Y-106386381D01*
X89018952Y-106386381D01*
X88923714Y-106434000D01*
X88876095Y-106481619D01*
X88828476Y-106576857D01*
X88828476Y-106814952D01*
X88876095Y-106910190D01*
X88923714Y-106957810D01*
X89018952Y-107005429D01*
X89209429Y-107005429D01*
X89304667Y-106957810D01*
X89352286Y-106910190D01*
X89399905Y-106814952D01*
X89479381Y-99575857D02*
X89003190Y-99909191D01*
X89479381Y-100147286D02*
X88479381Y-100147286D01*
X88479381Y-99766333D01*
X88527000Y-99671095D01*
X88574619Y-99623476D01*
X88669857Y-99575857D01*
X88812714Y-99575857D01*
X88907952Y-99623476D01*
X88955571Y-99671095D01*
X89003190Y-99766333D01*
X89003190Y-100147286D01*
X88574619Y-99194905D02*
X88527000Y-99147286D01*
X88479381Y-99052048D01*
X88479381Y-98813952D01*
X88527000Y-98718714D01*
X88574619Y-98671095D01*
X88669857Y-98623476D01*
X88765095Y-98623476D01*
X88907952Y-98671095D01*
X89479381Y-99242524D01*
X89479381Y-98623476D01*
X88479381Y-98004429D02*
X88479381Y-97909190D01*
X88527000Y-97813952D01*
X88574619Y-97766333D01*
X88669857Y-97718714D01*
X88860333Y-97671095D01*
X89098429Y-97671095D01*
X89288905Y-97718714D01*
X89384143Y-97766333D01*
X89431762Y-97813952D01*
X89479381Y-97909190D01*
X89479381Y-98004429D01*
X89431762Y-98099667D01*
X89384143Y-98147286D01*
X89288905Y-98194905D01*
X89098429Y-98242524D01*
X88860333Y-98242524D01*
X88669857Y-98194905D01*
X88574619Y-98147286D01*
X88527000Y-98099667D01*
X88479381Y-98004429D01*
X76700143Y-97552381D02*
X76366809Y-97076190D01*
X76128714Y-97552381D02*
X76128714Y-96552381D01*
X76509667Y-96552381D01*
X76604905Y-96600000D01*
X76652524Y-96647619D01*
X76700143Y-96742857D01*
X76700143Y-96885714D01*
X76652524Y-96980952D01*
X76604905Y-97028571D01*
X76509667Y-97076190D01*
X76128714Y-97076190D01*
X77081095Y-96647619D02*
X77128714Y-96600000D01*
X77223952Y-96552381D01*
X77462048Y-96552381D01*
X77557286Y-96600000D01*
X77604905Y-96647619D01*
X77652524Y-96742857D01*
X77652524Y-96838095D01*
X77604905Y-96980952D01*
X77033476Y-97552381D01*
X77652524Y-97552381D01*
X78604905Y-97552381D02*
X78033476Y-97552381D01*
X78319190Y-97552381D02*
X78319190Y-96552381D01*
X78223952Y-96695238D01*
X78128714Y-96790476D01*
X78033476Y-96838095D01*
X140708143Y-57348381D02*
X140374809Y-56872190D01*
X140136714Y-57348381D02*
X140136714Y-56348381D01*
X140517667Y-56348381D01*
X140612905Y-56396000D01*
X140660524Y-56443619D01*
X140708143Y-56538857D01*
X140708143Y-56681714D01*
X140660524Y-56776952D01*
X140612905Y-56824571D01*
X140517667Y-56872190D01*
X140136714Y-56872190D01*
X141089095Y-56443619D02*
X141136714Y-56396000D01*
X141231952Y-56348381D01*
X141470048Y-56348381D01*
X141565286Y-56396000D01*
X141612905Y-56443619D01*
X141660524Y-56538857D01*
X141660524Y-56634095D01*
X141612905Y-56776952D01*
X141041476Y-57348381D01*
X141660524Y-57348381D01*
X141993857Y-56348381D02*
X142660524Y-56348381D01*
X142231952Y-57348381D01*
X147947143Y-62737381D02*
X147613809Y-62261190D01*
X147375714Y-62737381D02*
X147375714Y-61737381D01*
X147756667Y-61737381D01*
X147851905Y-61785000D01*
X147899524Y-61832619D01*
X147947143Y-61927857D01*
X147947143Y-62070714D01*
X147899524Y-62165952D01*
X147851905Y-62213571D01*
X147756667Y-62261190D01*
X147375714Y-62261190D01*
X148328095Y-61832619D02*
X148375714Y-61785000D01*
X148470952Y-61737381D01*
X148709048Y-61737381D01*
X148804286Y-61785000D01*
X148851905Y-61832619D01*
X148899524Y-61927857D01*
X148899524Y-62023095D01*
X148851905Y-62165952D01*
X148280476Y-62737381D01*
X148899524Y-62737381D01*
X149470952Y-62165952D02*
X149375714Y-62118333D01*
X149328095Y-62070714D01*
X149280476Y-61975476D01*
X149280476Y-61927857D01*
X149328095Y-61832619D01*
X149375714Y-61785000D01*
X149470952Y-61737381D01*
X149661429Y-61737381D01*
X149756667Y-61785000D01*
X149804286Y-61832619D01*
X149851905Y-61927857D01*
X149851905Y-61975476D01*
X149804286Y-62070714D01*
X149756667Y-62118333D01*
X149661429Y-62165952D01*
X149470952Y-62165952D01*
X149375714Y-62213571D01*
X149328095Y-62261190D01*
X149280476Y-62356429D01*
X149280476Y-62546905D01*
X149328095Y-62642143D01*
X149375714Y-62689762D01*
X149470952Y-62737381D01*
X149661429Y-62737381D01*
X149756667Y-62689762D01*
X149804286Y-62642143D01*
X149851905Y-62546905D01*
X149851905Y-62356429D01*
X149804286Y-62261190D01*
X149756667Y-62213571D01*
X149661429Y-62165952D01*
X150892381Y-51315857D02*
X150416190Y-51649191D01*
X150892381Y-51887286D02*
X149892381Y-51887286D01*
X149892381Y-51506333D01*
X149940000Y-51411095D01*
X149987619Y-51363476D01*
X150082857Y-51315857D01*
X150225714Y-51315857D01*
X150320952Y-51363476D01*
X150368571Y-51411095D01*
X150416190Y-51506333D01*
X150416190Y-51887286D01*
X149987619Y-50934905D02*
X149940000Y-50887286D01*
X149892381Y-50792048D01*
X149892381Y-50553952D01*
X149940000Y-50458714D01*
X149987619Y-50411095D01*
X150082857Y-50363476D01*
X150178095Y-50363476D01*
X150320952Y-50411095D01*
X150892381Y-50982524D01*
X150892381Y-50363476D01*
X150892381Y-49887286D02*
X150892381Y-49696810D01*
X150844762Y-49601571D01*
X150797143Y-49553952D01*
X150654286Y-49458714D01*
X150463810Y-49411095D01*
X150082857Y-49411095D01*
X149987619Y-49458714D01*
X149940000Y-49506333D01*
X149892381Y-49601571D01*
X149892381Y-49792048D01*
X149940000Y-49887286D01*
X149987619Y-49934905D01*
X150082857Y-49982524D01*
X150320952Y-49982524D01*
X150416190Y-49934905D01*
X150463810Y-49887286D01*
X150511429Y-49792048D01*
X150511429Y-49601571D01*
X150463810Y-49506333D01*
X150416190Y-49458714D01*
X150320952Y-49411095D01*
X116705143Y-83764381D02*
X116371809Y-83288190D01*
X116133714Y-83764381D02*
X116133714Y-82764381D01*
X116514667Y-82764381D01*
X116609905Y-82812000D01*
X116657524Y-82859619D01*
X116705143Y-82954857D01*
X116705143Y-83097714D01*
X116657524Y-83192952D01*
X116609905Y-83240571D01*
X116514667Y-83288190D01*
X116133714Y-83288190D01*
X117038476Y-82764381D02*
X117657524Y-82764381D01*
X117324190Y-83145333D01*
X117467048Y-83145333D01*
X117562286Y-83192952D01*
X117609905Y-83240571D01*
X117657524Y-83335810D01*
X117657524Y-83573905D01*
X117609905Y-83669143D01*
X117562286Y-83716762D01*
X117467048Y-83764381D01*
X117181333Y-83764381D01*
X117086095Y-83716762D01*
X117038476Y-83669143D01*
X118276571Y-82764381D02*
X118371810Y-82764381D01*
X118467048Y-82812000D01*
X118514667Y-82859619D01*
X118562286Y-82954857D01*
X118609905Y-83145333D01*
X118609905Y-83383429D01*
X118562286Y-83573905D01*
X118514667Y-83669143D01*
X118467048Y-83716762D01*
X118371810Y-83764381D01*
X118276571Y-83764381D01*
X118181333Y-83716762D01*
X118133714Y-83669143D01*
X118086095Y-83573905D01*
X118038476Y-83383429D01*
X118038476Y-83145333D01*
X118086095Y-82954857D01*
X118133714Y-82859619D01*
X118181333Y-82812000D01*
X118276571Y-82764381D01*
X109023381Y-53634238D02*
X108547190Y-53967572D01*
X109023381Y-54205667D02*
X108023381Y-54205667D01*
X108023381Y-53824714D01*
X108071000Y-53729476D01*
X108118619Y-53681857D01*
X108213857Y-53634238D01*
X108356714Y-53634238D01*
X108451952Y-53681857D01*
X108499571Y-53729476D01*
X108547190Y-53824714D01*
X108547190Y-54205667D01*
X108023381Y-53348524D02*
X109023381Y-53015191D01*
X108023381Y-52681857D01*
X108118619Y-52396143D02*
X108071000Y-52348524D01*
X108023381Y-52253286D01*
X108023381Y-52015190D01*
X108071000Y-51919952D01*
X108118619Y-51872333D01*
X108213857Y-51824714D01*
X108309095Y-51824714D01*
X108451952Y-51872333D01*
X109023381Y-52443762D01*
X109023381Y-51824714D01*
X66559667Y-111003762D02*
X66702524Y-111051381D01*
X66940620Y-111051381D01*
X67035858Y-111003762D01*
X67083477Y-110956143D01*
X67131096Y-110860905D01*
X67131096Y-110765667D01*
X67083477Y-110670429D01*
X67035858Y-110622810D01*
X66940620Y-110575190D01*
X66750143Y-110527571D01*
X66654905Y-110479952D01*
X66607286Y-110432333D01*
X66559667Y-110337095D01*
X66559667Y-110241857D01*
X66607286Y-110146619D01*
X66654905Y-110099000D01*
X66750143Y-110051381D01*
X66988239Y-110051381D01*
X67131096Y-110099000D01*
X67464429Y-110051381D02*
X67702524Y-111051381D01*
X67893001Y-110337095D01*
X68083477Y-111051381D01*
X68321572Y-110051381D01*
X69226334Y-111051381D02*
X68654905Y-111051381D01*
X68940619Y-111051381D02*
X68940619Y-110051381D01*
X68845381Y-110194238D01*
X68750143Y-110289476D01*
X68654905Y-110337095D01*
X176922667Y-115067762D02*
X177065524Y-115115381D01*
X177303620Y-115115381D01*
X177398858Y-115067762D01*
X177446477Y-115020143D01*
X177494096Y-114924905D01*
X177494096Y-114829667D01*
X177446477Y-114734429D01*
X177398858Y-114686810D01*
X177303620Y-114639190D01*
X177113143Y-114591571D01*
X177017905Y-114543952D01*
X176970286Y-114496333D01*
X176922667Y-114401095D01*
X176922667Y-114305857D01*
X176970286Y-114210619D01*
X177017905Y-114163000D01*
X177113143Y-114115381D01*
X177351239Y-114115381D01*
X177494096Y-114163000D01*
X177827429Y-114115381D02*
X178065524Y-115115381D01*
X178256001Y-114401095D01*
X178446477Y-115115381D01*
X178684572Y-114115381D01*
X179017905Y-114210619D02*
X179065524Y-114163000D01*
X179160762Y-114115381D01*
X179398858Y-114115381D01*
X179494096Y-114163000D01*
X179541715Y-114210619D01*
X179589334Y-114305857D01*
X179589334Y-114401095D01*
X179541715Y-114543952D01*
X178970286Y-115115381D01*
X179589334Y-115115381D01*
X193051667Y-115067762D02*
X193194524Y-115115381D01*
X193432620Y-115115381D01*
X193527858Y-115067762D01*
X193575477Y-115020143D01*
X193623096Y-114924905D01*
X193623096Y-114829667D01*
X193575477Y-114734429D01*
X193527858Y-114686810D01*
X193432620Y-114639190D01*
X193242143Y-114591571D01*
X193146905Y-114543952D01*
X193099286Y-114496333D01*
X193051667Y-114401095D01*
X193051667Y-114305857D01*
X193099286Y-114210619D01*
X193146905Y-114163000D01*
X193242143Y-114115381D01*
X193480239Y-114115381D01*
X193623096Y-114163000D01*
X193956429Y-114115381D02*
X194194524Y-115115381D01*
X194385001Y-114401095D01*
X194575477Y-115115381D01*
X194813572Y-114115381D01*
X195099286Y-114115381D02*
X195718334Y-114115381D01*
X195385000Y-114496333D01*
X195527858Y-114496333D01*
X195623096Y-114543952D01*
X195670715Y-114591571D01*
X195718334Y-114686810D01*
X195718334Y-114924905D01*
X195670715Y-115020143D01*
X195623096Y-115067762D01*
X195527858Y-115115381D01*
X195242143Y-115115381D01*
X195146905Y-115067762D01*
X195099286Y-115020143D01*
X204747762Y-90995333D02*
X204795381Y-90852476D01*
X204795381Y-90614380D01*
X204747762Y-90519142D01*
X204700143Y-90471523D01*
X204604905Y-90423904D01*
X204509667Y-90423904D01*
X204414429Y-90471523D01*
X204366810Y-90519142D01*
X204319190Y-90614380D01*
X204271571Y-90804857D01*
X204223952Y-90900095D01*
X204176333Y-90947714D01*
X204081095Y-90995333D01*
X203985857Y-90995333D01*
X203890619Y-90947714D01*
X203843000Y-90900095D01*
X203795381Y-90804857D01*
X203795381Y-90566761D01*
X203843000Y-90423904D01*
X203795381Y-90090571D02*
X204795381Y-89852476D01*
X204081095Y-89661999D01*
X204795381Y-89471523D01*
X203795381Y-89233428D01*
X204128714Y-88423904D02*
X204795381Y-88423904D01*
X203747762Y-88662000D02*
X204462048Y-88900095D01*
X204462048Y-88281047D01*
X131476809Y-100632190D02*
X131476809Y-101108381D01*
X131143476Y-100108381D02*
X131476809Y-100632190D01*
X131810143Y-100108381D01*
X132095857Y-100203619D02*
X132143476Y-100156000D01*
X132238714Y-100108381D01*
X132476810Y-100108381D01*
X132572048Y-100156000D01*
X132619667Y-100203619D01*
X132667286Y-100298857D01*
X132667286Y-100394095D01*
X132619667Y-100536952D01*
X132048238Y-101108381D01*
X132667286Y-101108381D01*
X124674334Y-76271381D02*
X124198143Y-76271381D01*
X124198143Y-75271381D01*
X125531477Y-76271381D02*
X124960048Y-76271381D01*
X125245762Y-76271381D02*
X125245762Y-75271381D01*
X125150524Y-75414238D01*
X125055286Y-75509476D01*
X124960048Y-75557095D01*
X106926381Y-108537333D02*
X107640667Y-108537333D01*
X107783524Y-108584953D01*
X107878762Y-108680191D01*
X107926381Y-108823048D01*
X107926381Y-108918286D01*
X107926381Y-107537333D02*
X107926381Y-108108762D01*
X107926381Y-107823048D02*
X106926381Y-107823048D01*
X107069238Y-107918286D01*
X107164476Y-108013524D01*
X107212095Y-108108762D01*
X187626667Y-86352381D02*
X187626667Y-87066667D01*
X187579047Y-87209524D01*
X187483809Y-87304762D01*
X187340952Y-87352381D01*
X187245714Y-87352381D01*
X188055238Y-86447619D02*
X188102857Y-86400000D01*
X188198095Y-86352381D01*
X188436191Y-86352381D01*
X188531429Y-86400000D01*
X188579048Y-86447619D01*
X188626667Y-86542857D01*
X188626667Y-86638095D01*
X188579048Y-86780952D01*
X188007619Y-87352381D01*
X188626667Y-87352381D01*
X65111381Y-67770333D02*
X65825667Y-67770333D01*
X65968524Y-67817953D01*
X66063762Y-67913191D01*
X66111381Y-68056048D01*
X66111381Y-68151286D01*
X65111381Y-67389381D02*
X65111381Y-66770333D01*
X65492333Y-67103667D01*
X65492333Y-66960809D01*
X65539952Y-66865571D01*
X65587571Y-66817952D01*
X65682810Y-66770333D01*
X65920905Y-66770333D01*
X66016143Y-66817952D01*
X66063762Y-66865571D01*
X66111381Y-66960809D01*
X66111381Y-67246524D01*
X66063762Y-67341762D01*
X66016143Y-67389381D01*
X69175381Y-67770333D02*
X69889667Y-67770333D01*
X70032524Y-67817953D01*
X70127762Y-67913191D01*
X70175381Y-68056048D01*
X70175381Y-68151286D01*
X69175381Y-66817952D02*
X69175381Y-67294143D01*
X69651571Y-67341762D01*
X69603952Y-67294143D01*
X69556333Y-67198905D01*
X69556333Y-66960809D01*
X69603952Y-66865571D01*
X69651571Y-66817952D01*
X69746810Y-66770333D01*
X69984905Y-66770333D01*
X70080143Y-66817952D01*
X70127762Y-66865571D01*
X70175381Y-66960809D01*
X70175381Y-67198905D01*
X70127762Y-67294143D01*
X70080143Y-67341762D01*
X123944381Y-42624333D02*
X124658667Y-42624333D01*
X124801524Y-42671953D01*
X124896762Y-42767191D01*
X124944381Y-42910048D01*
X124944381Y-43005286D01*
X123944381Y-41719571D02*
X123944381Y-41910048D01*
X123992000Y-42005286D01*
X124039619Y-42052905D01*
X124182476Y-42148143D01*
X124372952Y-42195762D01*
X124753905Y-42195762D01*
X124849143Y-42148143D01*
X124896762Y-42100524D01*
X124944381Y-42005286D01*
X124944381Y-41814809D01*
X124896762Y-41719571D01*
X124849143Y-41671952D01*
X124753905Y-41624333D01*
X124515810Y-41624333D01*
X124420571Y-41671952D01*
X124372952Y-41719571D01*
X124325333Y-41814809D01*
X124325333Y-42005286D01*
X124372952Y-42100524D01*
X124420571Y-42148143D01*
X124515810Y-42195762D01*
X110990381Y-42878333D02*
X111704667Y-42878333D01*
X111847524Y-42925953D01*
X111942762Y-43021191D01*
X111990381Y-43164048D01*
X111990381Y-43259286D01*
X110990381Y-42497381D02*
X110990381Y-41830714D01*
X111990381Y-42259286D01*
X187626667Y-81526381D02*
X187626667Y-82240667D01*
X187579047Y-82383524D01*
X187483809Y-82478762D01*
X187340952Y-82526381D01*
X187245714Y-82526381D01*
X188245714Y-81954952D02*
X188150476Y-81907333D01*
X188102857Y-81859714D01*
X188055238Y-81764476D01*
X188055238Y-81716857D01*
X188102857Y-81621619D01*
X188150476Y-81574000D01*
X188245714Y-81526381D01*
X188436191Y-81526381D01*
X188531429Y-81574000D01*
X188579048Y-81621619D01*
X188626667Y-81716857D01*
X188626667Y-81764476D01*
X188579048Y-81859714D01*
X188531429Y-81907333D01*
X188436191Y-81954952D01*
X188245714Y-81954952D01*
X188150476Y-82002571D01*
X188102857Y-82050190D01*
X188055238Y-82145429D01*
X188055238Y-82335905D01*
X188102857Y-82431143D01*
X188150476Y-82478762D01*
X188245714Y-82526381D01*
X188436191Y-82526381D01*
X188531429Y-82478762D01*
X188579048Y-82431143D01*
X188626667Y-82335905D01*
X188626667Y-82145429D01*
X188579048Y-82050190D01*
X188531429Y-82002571D01*
X188436191Y-81954952D01*
X115562381Y-43354523D02*
X116276667Y-43354523D01*
X116419524Y-43402143D01*
X116514762Y-43497381D01*
X116562381Y-43640238D01*
X116562381Y-43735476D01*
X116562381Y-42354523D02*
X116562381Y-42925952D01*
X116562381Y-42640238D02*
X115562381Y-42640238D01*
X115705238Y-42735476D01*
X115800476Y-42830714D01*
X115848095Y-42925952D01*
X115562381Y-41735476D02*
X115562381Y-41640237D01*
X115610000Y-41544999D01*
X115657619Y-41497380D01*
X115752857Y-41449761D01*
X115943333Y-41402142D01*
X116181429Y-41402142D01*
X116371905Y-41449761D01*
X116467143Y-41497380D01*
X116514762Y-41544999D01*
X116562381Y-41640237D01*
X116562381Y-41735476D01*
X116514762Y-41830714D01*
X116467143Y-41878333D01*
X116371905Y-41925952D01*
X116181429Y-41973571D01*
X115943333Y-41973571D01*
X115752857Y-41925952D01*
X115657619Y-41878333D01*
X115610000Y-41830714D01*
X115562381Y-41735476D01*
X97209077Y-78903581D02*
X97209077Y-79617867D01*
X97161457Y-79760724D01*
X97066219Y-79855962D01*
X96923362Y-79903581D01*
X96828124Y-79903581D01*
X98209077Y-79903581D02*
X97637648Y-79903581D01*
X97923362Y-79903581D02*
X97923362Y-78903581D01*
X97828124Y-79046438D01*
X97732886Y-79141676D01*
X97637648Y-79189295D01*
X99161458Y-79903581D02*
X98590029Y-79903581D01*
X98875743Y-79903581D02*
X98875743Y-78903581D01*
X98780505Y-79046438D01*
X98685267Y-79141676D01*
X98590029Y-79189295D01*
X187150477Y-91178381D02*
X187150477Y-91892667D01*
X187102857Y-92035524D01*
X187007619Y-92130762D01*
X186864762Y-92178381D01*
X186769524Y-92178381D01*
X188150477Y-92178381D02*
X187579048Y-92178381D01*
X187864762Y-92178381D02*
X187864762Y-91178381D01*
X187769524Y-91321238D01*
X187674286Y-91416476D01*
X187579048Y-91464095D01*
X188531429Y-91273619D02*
X188579048Y-91226000D01*
X188674286Y-91178381D01*
X188912382Y-91178381D01*
X189007620Y-91226000D01*
X189055239Y-91273619D01*
X189102858Y-91368857D01*
X189102858Y-91464095D01*
X189055239Y-91606952D01*
X188483810Y-92178381D01*
X189102858Y-92178381D01*
X114990381Y-109013523D02*
X115704667Y-109013523D01*
X115847524Y-109061143D01*
X115942762Y-109156381D01*
X115990381Y-109299238D01*
X115990381Y-109394476D01*
X115990381Y-108013523D02*
X115990381Y-108584952D01*
X115990381Y-108299238D02*
X114990381Y-108299238D01*
X115133238Y-108394476D01*
X115228476Y-108489714D01*
X115276095Y-108584952D01*
X114990381Y-107680190D02*
X114990381Y-107061142D01*
X115371333Y-107394476D01*
X115371333Y-107251618D01*
X115418952Y-107156380D01*
X115466571Y-107108761D01*
X115561810Y-107061142D01*
X115799905Y-107061142D01*
X115895143Y-107108761D01*
X115942762Y-107156380D01*
X115990381Y-107251618D01*
X115990381Y-107537333D01*
X115942762Y-107632571D01*
X115895143Y-107680190D01*
X105616477Y-81494381D02*
X105616477Y-82208667D01*
X105568857Y-82351524D01*
X105473619Y-82446762D01*
X105330762Y-82494381D01*
X105235524Y-82494381D01*
X106616477Y-82494381D02*
X106045048Y-82494381D01*
X106330762Y-82494381D02*
X106330762Y-81494381D01*
X106235524Y-81637238D01*
X106140286Y-81732476D01*
X106045048Y-81780095D01*
X107187905Y-81922952D02*
X107092667Y-81875333D01*
X107045048Y-81827714D01*
X106997429Y-81732476D01*
X106997429Y-81684857D01*
X107045048Y-81589619D01*
X107092667Y-81542000D01*
X107187905Y-81494381D01*
X107378382Y-81494381D01*
X107473620Y-81542000D01*
X107521239Y-81589619D01*
X107568858Y-81684857D01*
X107568858Y-81732476D01*
X107521239Y-81827714D01*
X107473620Y-81875333D01*
X107378382Y-81922952D01*
X107187905Y-81922952D01*
X107092667Y-81970571D01*
X107045048Y-82018190D01*
X106997429Y-82113429D01*
X106997429Y-82303905D01*
X107045048Y-82399143D01*
X107092667Y-82446762D01*
X107187905Y-82494381D01*
X107378382Y-82494381D01*
X107473620Y-82446762D01*
X107521239Y-82399143D01*
X107568858Y-82303905D01*
X107568858Y-82113429D01*
X107521239Y-82018190D01*
X107473620Y-81970571D01*
X107378382Y-81922952D01*
X81740477Y-80605381D02*
X81740477Y-81319667D01*
X81692857Y-81462524D01*
X81597619Y-81557762D01*
X81454762Y-81605381D01*
X81359524Y-81605381D01*
X82169048Y-80700619D02*
X82216667Y-80653000D01*
X82311905Y-80605381D01*
X82550001Y-80605381D01*
X82645239Y-80653000D01*
X82692858Y-80700619D01*
X82740477Y-80795857D01*
X82740477Y-80891095D01*
X82692858Y-81033952D01*
X82121429Y-81605381D01*
X82740477Y-81605381D01*
X83359524Y-80605381D02*
X83454763Y-80605381D01*
X83550001Y-80653000D01*
X83597620Y-80700619D01*
X83645239Y-80795857D01*
X83692858Y-80986333D01*
X83692858Y-81224429D01*
X83645239Y-81414905D01*
X83597620Y-81510143D01*
X83550001Y-81557762D01*
X83454763Y-81605381D01*
X83359524Y-81605381D01*
X83264286Y-81557762D01*
X83216667Y-81510143D01*
X83169048Y-81414905D01*
X83121429Y-81224429D01*
X83121429Y-80986333D01*
X83169048Y-80795857D01*
X83216667Y-80700619D01*
X83264286Y-80653000D01*
X83359524Y-80605381D01*
X119753381Y-43227523D02*
X120467667Y-43227523D01*
X120610524Y-43275143D01*
X120705762Y-43370381D01*
X120753381Y-43513238D01*
X120753381Y-43608476D01*
X119848619Y-42798952D02*
X119801000Y-42751333D01*
X119753381Y-42656095D01*
X119753381Y-42417999D01*
X119801000Y-42322761D01*
X119848619Y-42275142D01*
X119943857Y-42227523D01*
X120039095Y-42227523D01*
X120181952Y-42275142D01*
X120753381Y-42846571D01*
X120753381Y-42227523D01*
X120753381Y-41275142D02*
X120753381Y-41846571D01*
X120753381Y-41560857D02*
X119753381Y-41560857D01*
X119896238Y-41656095D01*
X119991476Y-41751333D01*
X120039095Y-41846571D01*
X95837477Y-75620381D02*
X95837477Y-76334667D01*
X95789857Y-76477524D01*
X95694619Y-76572762D01*
X95551762Y-76620381D01*
X95456524Y-76620381D01*
X96266048Y-75715619D02*
X96313667Y-75668000D01*
X96408905Y-75620381D01*
X96647001Y-75620381D01*
X96742239Y-75668000D01*
X96789858Y-75715619D01*
X96837477Y-75810857D01*
X96837477Y-75906095D01*
X96789858Y-76048952D01*
X96218429Y-76620381D01*
X96837477Y-76620381D01*
X97218429Y-75715619D02*
X97266048Y-75668000D01*
X97361286Y-75620381D01*
X97599382Y-75620381D01*
X97694620Y-75668000D01*
X97742239Y-75715619D01*
X97789858Y-75810857D01*
X97789858Y-75906095D01*
X97742239Y-76048952D01*
X97170810Y-76620381D01*
X97789858Y-76620381D01*
X107491281Y-51498405D02*
X108300805Y-51498405D01*
X108396043Y-51450786D01*
X108443662Y-51403167D01*
X108491281Y-51307929D01*
X108491281Y-51117452D01*
X108443662Y-51022214D01*
X108396043Y-50974595D01*
X108300805Y-50926976D01*
X107491281Y-50926976D01*
X108491281Y-49926976D02*
X108491281Y-50498405D01*
X108491281Y-50212691D02*
X107491281Y-50212691D01*
X107634138Y-50307929D01*
X107729376Y-50403167D01*
X107776995Y-50498405D01*
X162639477Y-117943381D02*
X162639477Y-118657667D01*
X162591857Y-118800524D01*
X162496619Y-118895762D01*
X162353762Y-118943381D01*
X162258524Y-118943381D01*
X163639477Y-118943381D02*
X163068048Y-118943381D01*
X163353762Y-118943381D02*
X163353762Y-117943381D01*
X163258524Y-118086238D01*
X163163286Y-118181476D01*
X163068048Y-118229095D01*
X164496620Y-118276714D02*
X164496620Y-118943381D01*
X164258524Y-117895762D02*
X164020429Y-118610048D01*
X164639477Y-118610048D01*
X144859477Y-117689381D02*
X144859477Y-118403667D01*
X144811857Y-118546524D01*
X144716619Y-118641762D01*
X144573762Y-118689381D01*
X144478524Y-118689381D01*
X145859477Y-118689381D02*
X145288048Y-118689381D01*
X145573762Y-118689381D02*
X145573762Y-117689381D01*
X145478524Y-117832238D01*
X145383286Y-117927476D01*
X145288048Y-117975095D01*
X146192810Y-117689381D02*
X146859477Y-117689381D01*
X146430905Y-118689381D01*
X64341619Y-54935381D02*
X64341619Y-53935381D01*
X64722572Y-53935381D01*
X64817810Y-53983000D01*
X64865429Y-54030619D01*
X64913048Y-54125857D01*
X64913048Y-54268714D01*
X64865429Y-54363952D01*
X64817810Y-54411571D01*
X64722572Y-54459190D01*
X64341619Y-54459190D01*
X65341619Y-54935381D02*
X65341619Y-54268714D01*
X65341619Y-54459190D02*
X65389238Y-54363952D01*
X65436857Y-54316333D01*
X65532095Y-54268714D01*
X65627334Y-54268714D01*
X66103524Y-54935381D02*
X66008286Y-54887762D01*
X65960667Y-54840143D01*
X65913048Y-54744905D01*
X65913048Y-54459190D01*
X65960667Y-54363952D01*
X66008286Y-54316333D01*
X66103524Y-54268714D01*
X66246382Y-54268714D01*
X66341620Y-54316333D01*
X66389239Y-54363952D01*
X66436858Y-54459190D01*
X66436858Y-54744905D01*
X66389239Y-54840143D01*
X66341620Y-54887762D01*
X66246382Y-54935381D01*
X66103524Y-54935381D01*
X67294001Y-54268714D02*
X67294001Y-55078238D01*
X67246382Y-55173476D01*
X67198763Y-55221095D01*
X67103524Y-55268714D01*
X66960667Y-55268714D01*
X66865429Y-55221095D01*
X67294001Y-54887762D02*
X67198763Y-54935381D01*
X67008286Y-54935381D01*
X66913048Y-54887762D01*
X66865429Y-54840143D01*
X66817810Y-54744905D01*
X66817810Y-54459190D01*
X66865429Y-54363952D01*
X66913048Y-54316333D01*
X67008286Y-54268714D01*
X67198763Y-54268714D01*
X67294001Y-54316333D01*
X68294001Y-54935381D02*
X67722572Y-54935381D01*
X68008286Y-54935381D02*
X68008286Y-53935381D01*
X67913048Y-54078238D01*
X67817810Y-54173476D01*
X67722572Y-54221095D01*
M02*
